<svg width="90" height="90" viewBox="0 0 90 90" fill="none" xmlns="http://www.w3.org/2000/svg">
<path d="M71.5649 35H52V69H77.5V40.933L71.5649 35ZM71.1229 37.5638L74.9351 41.375H71.1229V37.5638V37.5638ZM54.125 66.875V37.1229H69V43.4989H75.375V66.875H54.125Z" fill="black"/>
<rect x="16" y="24" width="43" height="38" fill="white"/>
<path d="M56 49H14V53H56V49Z" stroke="black" stroke-width="2" stroke-miterlimit="10" stroke-linecap="round" stroke-linejoin="round"/>
<path d="M18.5 59H18.5C17.1193 59 16 57.8807 16 56.5V53H21V56.5C21 57.8807 19.8807 59 18.5 59Z" stroke="black" stroke-width="2" stroke-miterlimit="10" stroke-linecap="round" stroke-linejoin="round"/>
<path d="M51.5 59H51.5C50.1193 59 49 57.8807 49 56.5V53H54V56.5C54 57.8807 52.8807 59 51.5 59Z" stroke="black" stroke-width="2" stroke-miterlimit="10" stroke-linecap="round" stroke-linejoin="round"/>
<path d="M52 35H18L16 41V49H54V41L52 35Z" stroke="black" stroke-width="2" stroke-miterlimit="10" stroke-linecap="round" stroke-linejoin="round"/>
<path d="M50 21H20C18.8954 21 18 21.8954 18 23V35H52V23C52 21.8954 51.1046 21 50 21Z" stroke="black" stroke-width="2" stroke-miterlimit="10" stroke-linecap="round" stroke-linejoin="round"/>
<path d="M56 34H52V30H56C57.1046 30 58 30.8954 58 32V32C58 33.1046 57.1046 34 56 34Z" stroke="black" stroke-width="2" stroke-miterlimit="10" stroke-linecap="round" stroke-linejoin="round"/>
<path d="M14 34H18V30H14C12.8954 30 12 30.8954 12 32V32C12 33.1046 12.8954 34 14 34Z" stroke="black" stroke-width="2" stroke-miterlimit="10" stroke-linecap="round" stroke-linejoin="round"/>
<path d="M40 42H30V45H40V42Z" stroke="black" stroke-width="2" stroke-miterlimit="10" stroke-linecap="round" stroke-linejoin="round"/>
<path d="M54 45H51.5C50.6716 45 50 44.3284 50 43.5C50 42.6716 50.6716 42 51.5 42H54V45Z" stroke="black" stroke-width="2" stroke-miterlimit="10" stroke-linecap="round" stroke-linejoin="round"/>
<path d="M16 45H18.5C19.3284 45 20 44.3284 20 43.5C20 42.6716 19.3284 42 18.5 42H16V45Z" stroke="black" stroke-width="2" stroke-miterlimit="10" stroke-linecap="round" stroke-linejoin="round"/>
<path d="M33 24H37" stroke="black" stroke-width="2" stroke-miterlimit="10" stroke-linecap="round" stroke-linejoin="round"/>
<rect x="0.5" y="0.5" width="89" height="89" stroke="black"/>
</svg>
