<svg width="90" height="90" viewBox="0 0 90 90" fill="none" xmlns="http://www.w3.org/2000/svg">
<rect x="0.5" y="0.5" width="89" height="89" stroke="black"/>
<path fill-rule="evenodd" clip-rule="evenodd" d="M12.7754 44.2342L15.7618 42.7456L14.7068 40.8869L11.5895 42.4938C9.60706 43.8447 9.09513 46.5469 10.446 48.5293L30.7155 66.1578L26.8737 59.7847L12.1864 47.3434C11.4905 46.3221 11.7542 44.9301 12.7754 44.2342Z" fill="black"/>
<path fill-rule="evenodd" clip-rule="evenodd" d="M19.8016 36.6369L22.4713 35.7458L22.1158 33.5419L18.8301 34.7684C16.7016 35.875 15.8733 38.4975 16.9799 40.626L33.69 67.6983L32.2992 61.4485L18.8485 39.6545C18.2784 38.558 18.7051 37.207 19.8016 36.6369Z" fill="black"/>
<path fill-rule="evenodd" clip-rule="evenodd" d="M27.9305 30.7605L34.6821 28.4587L34.7865 26.1864L27.2502 28.7674C24.9799 29.5424 23.7677 32.0111 24.5427 34.2814L33.0952 56.9249L33.4678 52.2129L26.5357 33.6011C26.1365 32.4315 26.761 31.1598 27.9305 30.7605Z" fill="black"/>
<path fill-rule="evenodd" clip-rule="evenodd" d="M72.5783 24.5085L41.8503 22.3975C40.6174 22.3128 39.5493 23.2436 39.4646 24.4765L36.8304 62.8208C36.7457 64.0537 37.6765 65.1218 38.9094 65.2065L69.6373 67.3175C70.8702 67.4022 71.9384 66.4714 72.0231 65.2385L74.6573 26.8943C74.742 25.6614 73.8112 24.5932 72.5783 24.5085ZM41.9947 20.2965C39.6014 20.1321 37.528 21.9389 37.3636 24.3322L34.7293 62.6765C34.5649 65.0698 36.3718 67.1432 38.7651 67.3076L69.493 69.4186C71.8863 69.583 73.9597 67.7761 74.1241 65.3829L76.7583 27.0386C76.9228 24.6453 75.1159 22.5719 72.7226 22.4075L41.9947 20.2965Z" fill="black"/>
<path d="M41.5131 44.9347C41.5529 44.3546 42.0555 43.9165 42.6357 43.9563L68.8991 45.7588C69.4792 45.7986 69.9173 46.3013 69.8775 46.8815V46.8815C69.8377 47.4617 69.335 47.8997 68.7549 47.8599L42.4915 46.0574C41.9113 46.0176 41.4733 45.5149 41.5131 44.9347V44.9347Z" fill="black"/>
<path d="M40.9621 49.1188C41.0019 48.5386 41.5045 48.1006 42.0847 48.1404L68.6107 49.9609C69.1909 50.0008 69.6289 50.5034 69.5891 51.0836V51.0836C69.5493 51.6638 69.0467 52.1018 68.4665 52.062L41.9405 50.2415C41.3603 50.2016 40.9223 49.699 40.9621 49.1188V49.1188Z" fill="black"/>
<path d="M40.9363 53.3389C40.9761 52.7587 41.4788 52.3207 42.059 52.3605L68.8475 54.1991C69.4277 54.2389 69.8658 54.7415 69.826 55.3217V55.3217C69.7862 55.9019 69.2835 56.3399 68.7033 56.3001L41.9148 54.4616C41.3346 54.4217 40.8965 53.9191 40.9363 53.3389V53.3389Z" fill="black"/>
<path d="M46.8249 59.8122C46.7005 61.6253 45.1298 62.9942 43.3167 62.8698C41.5036 62.7453 40.1346 61.1746 40.2591 59.3615C40.3835 57.5484 41.9542 56.1795 43.7673 56.3039C45.5804 56.4284 46.9493 57.9991 46.8249 59.8122Z" fill="black"/>
<path d="M45.5117 59.722C45.437 60.8099 44.4946 61.6312 43.4068 61.5566C42.3189 61.4819 41.4975 60.5395 41.5722 59.4516C41.6469 58.3638 42.5893 57.5424 43.6771 57.6171C44.765 57.6917 45.5864 58.6341 45.5117 59.722Z" fill="white"/>
<path d="M57.3149 32.3687L57.1073 32.1895C56.9897 32.0879 56.91 31.9494 56.8813 31.7968L56.5947 30.2681C56.5743 30.2736 56.5533 30.2781 56.5319 30.2803C56.509 30.283 56.4855 30.2841 56.4616 30.2825L55.9143 30.2449C55.8904 30.2432 55.8673 30.2389 55.845 30.2331C55.8239 30.228 55.804 30.2206 55.7844 30.2124L55.2915 31.6876C55.2422 31.8349 55.1443 31.9611 55.014 32.0457L54.7838 32.1948C54.6027 32.3121 54.4873 32.508 54.4725 32.7233L54.2493 35.9727C54.2234 36.3505 54.5086 36.6778 54.8864 36.7038L56.5966 36.8212C56.9744 36.8472 57.3017 36.5619 57.3277 36.1842L57.5509 32.9348C57.5657 32.7194 57.4782 32.5096 57.3149 32.3687Z" stroke="black" stroke-miterlimit="10" stroke-linecap="round" stroke-linejoin="round"/>
<path d="M56.5321 29.2563L55.9848 29.2187C55.7582 29.2032 55.5617 29.3744 55.5461 29.601L55.532 29.8062C55.5165 30.0328 55.6877 30.2293 55.9143 30.2449L56.4616 30.2825C56.6882 30.298 56.8846 30.1268 56.9002 29.9002L56.9143 29.695C56.9299 29.4684 56.7587 29.2719 56.5321 29.2563Z" stroke="black" stroke-miterlimit="10" stroke-linecap="round" stroke-linejoin="round"/>
<path d="M54.449 33.0653L57.5274 33.2768" stroke="black" stroke-miterlimit="10" stroke-linecap="round" stroke-linejoin="round"/>
<path d="M54.3198 34.9466L57.3982 35.158" stroke="black" stroke-miterlimit="10" stroke-linecap="round" stroke-linejoin="round"/>
<path d="M50.284 28.7996L51.8269 28.6893L51.9383 30.2341" stroke="black" stroke-miterlimit="10" stroke-linecap="round" stroke-linejoin="round"/>
<path d="M50.7435 35.8914C50.2553 35.0062 49.9833 33.9861 50.0009 32.9027C50.0277 31.246 50.7235 29.7573 51.8268 28.6893" stroke="black" stroke-miterlimit="10" stroke-linecap="round" stroke-linejoin="round"/>
<path d="M51.7996 38.716L51.6892 37.1731L53.2341 37.0617" stroke="black" stroke-miterlimit="10" stroke-linecap="round" stroke-linejoin="round"/>
<path d="M58.8915 38.2564C58.006 38.7446 56.9861 39.0168 55.9027 38.9991C54.2461 38.9722 52.7572 38.2764 51.6893 37.1731" stroke="black" stroke-miterlimit="10" stroke-linecap="round" stroke-linejoin="round"/>
<path d="M61.7159 37.2004L60.1731 37.3108L60.0616 35.7659" stroke="black" stroke-miterlimit="10" stroke-linecap="round" stroke-linejoin="round"/>
<path d="M61.2564 30.1086C61.7446 30.9941 62.0168 32.014 61.9991 33.0974C61.9722 34.754 61.2764 36.2429 60.1731 37.3108" stroke="black" stroke-miterlimit="10" stroke-linecap="round" stroke-linejoin="round"/>
<path d="M60.2004 27.284L60.3107 28.8269L58.7659 28.9383" stroke="black" stroke-miterlimit="10" stroke-linecap="round" stroke-linejoin="round"/>
<path d="M53.1086 27.7436C53.994 27.2555 55.014 26.9833 56.0973 27.001C57.754 27.0278 59.2428 27.7236 60.3107 28.8269" stroke="black" stroke-miterlimit="10" stroke-linecap="round" stroke-linejoin="round"/>
</svg>
