<svg width="90" height="90" viewBox="0 0 90 90" fill="none" xmlns="http://www.w3.org/2000/svg">
<rect x="0.5" y="0.5" width="89" height="89" stroke="black"/>
<path fill-rule="evenodd" clip-rule="evenodd" d="M12.7754 44.2342L15.7618 42.7456L14.7068 40.8869L11.5895 42.4938C9.60706 43.8447 9.09513 46.5469 10.446 48.5293L30.7155 66.1578L26.8737 59.7847L12.1864 47.3434C11.4905 46.3221 11.7542 44.9301 12.7754 44.2342Z" fill="black"/>
<path fill-rule="evenodd" clip-rule="evenodd" d="M19.8016 36.6369L22.4713 35.7458L22.1158 33.5419L18.8301 34.7683C16.7016 35.875 15.8733 38.4975 16.9799 40.6259L33.69 67.6983L32.2992 61.4485L18.8485 39.6544C18.2784 38.558 18.7051 37.207 19.8016 36.6369Z" fill="black"/>
<path fill-rule="evenodd" clip-rule="evenodd" d="M27.9305 30.7605L34.6821 28.4587L34.7865 26.1864L27.2502 28.7674C24.9799 29.5424 23.7677 32.0111 24.5427 34.2814L33.0952 56.9249L33.4678 52.2129L26.5357 33.6011C26.1365 32.4315 26.761 31.1598 27.9305 30.7605Z" fill="black"/>
<path fill-rule="evenodd" clip-rule="evenodd" d="M60.14 38.3029C60.5068 38.4621 60.6752 38.8884 60.5161 39.2552C60.4431 39.4233 60.3972 39.6017 60.3844 39.7877C60.3231 40.6819 60.998 41.4564 61.8923 41.5178C62.7865 41.5791 63.5609 40.9042 63.6223 40.0099C63.6351 39.8239 63.6139 39.6409 63.5647 39.4644C63.4572 39.0793 63.6822 38.68 64.0673 38.5725C64.4524 38.465 64.8517 38.69 64.9592 39.0751C65.0497 39.399 65.0916 39.7472 65.0668 40.1091C64.9507 41.8011 63.4851 43.0784 61.7931 42.9622C60.1011 42.8461 58.8238 41.3806 58.9399 39.6886C58.9648 39.3267 59.0539 38.9875 59.1878 38.679C59.3469 38.3122 59.7733 38.1438 60.14 38.3029Z" fill="black"/>
<path fill-rule="evenodd" clip-rule="evenodd" d="M48.0439 37.4727C48.4106 37.6318 48.579 38.0582 48.4199 38.425C48.347 38.5931 48.301 38.7715 48.2882 38.9575C48.2269 39.8517 48.9018 40.6262 49.7961 40.6875C50.6903 40.7489 51.4648 40.0739 51.5261 39.1797C51.5389 38.9937 51.5178 38.8107 51.4685 38.6342C51.361 38.2491 51.586 37.8498 51.9711 37.7422C52.3562 37.6347 52.7555 37.8597 52.863 38.2448C52.9535 38.5688 52.9954 38.917 52.9706 39.2788C52.8545 40.9708 51.3889 42.2481 49.6969 42.132C48.0049 42.0159 46.7276 40.5503 46.8438 38.8583C46.8686 38.4965 46.9577 38.1573 47.0916 37.8487C47.2507 37.4819 47.6771 37.3136 48.0439 37.4727Z" fill="black"/>
<path fill-rule="evenodd" clip-rule="evenodd" d="M60.3893 29.1446C59.9263 29.1128 59.525 29.4626 59.4932 29.9256L58.8773 38.9002C58.8499 39.2991 58.5044 39.6002 58.1055 39.5729C57.7066 39.5455 57.4054 39.1999 57.4328 38.801L58.0488 29.8265C58.1353 28.5657 59.2276 27.6136 60.4885 27.7001L62.9019 27.8658C63.5598 27.9109 64.167 28.238 64.5664 28.7634C64.5664 28.7634 64.5665 28.7635 64.5665 28.7635L68.8149 34.3485C69.1505 34.7896 69.3147 35.3376 69.2768 35.8908L69.1296 38.0357C69.043 39.2965 67.9507 40.2485 66.6898 40.162C66.291 40.1346 65.9898 39.7891 66.0172 39.3902C66.0445 38.9913 66.3901 38.6902 66.789 38.7175C67.252 38.7493 67.6533 38.3996 67.6851 37.9365L67.8323 35.7916C67.8462 35.5886 67.7859 35.3873 67.6626 35.2252L63.4139 29.6397C63.2675 29.4471 63.0445 29.3269 62.8027 29.3103L60.3893 29.1446Z" fill="black"/>
<path fill-rule="evenodd" clip-rule="evenodd" d="M62.1145 38.2799C61.4127 38.2317 60.783 38.6393 60.5162 39.255C60.3942 39.5363 60.1083 39.7103 59.8024 39.6893L54.5936 39.3319C54.1947 39.3045 53.8936 38.9589 53.9209 38.56C53.9483 38.1612 54.2939 37.86 54.6928 37.8874L59.4396 38.2132C60.0278 37.3193 61.0663 36.7567 62.2136 36.8354C63.5493 36.9271 64.6209 37.8598 64.9594 39.0756C65.0666 39.4608 64.8413 39.8599 64.4561 39.9672C64.0709 40.0744 63.6718 39.8491 63.5645 39.4639C63.3847 38.818 62.8165 38.3281 62.1145 38.2799Z" fill="black"/>
<path fill-rule="evenodd" clip-rule="evenodd" d="M44.0016 28.8624C44.0882 27.6016 45.1805 26.6495 46.4414 26.7361L57.3669 27.4859C58.6277 27.5724 59.5798 28.6648 59.4932 29.9256C59.4659 30.3245 59.1203 30.6257 58.7214 30.5983C58.3225 30.5709 58.0214 30.2254 58.0488 29.8265C58.0805 29.3634 57.7308 28.9622 57.2678 28.9304L46.3422 28.1805C45.8792 28.1488 45.4779 28.4985 45.4461 28.9615L44.9373 36.3753C44.9055 36.8384 45.2552 37.2396 45.7183 37.2714L47.3436 37.383C47.9317 36.4891 48.9703 35.9265 50.1176 36.0052C51.4532 36.0969 52.5248 37.0296 52.8633 38.2454C52.9706 38.6306 52.7452 39.0297 52.3601 39.137C51.9749 39.2442 51.5757 39.0189 51.4685 38.6337C51.2887 37.9878 50.7204 37.4979 50.0185 37.4497C49.3167 37.4015 48.687 37.8091 48.4201 38.4248C48.2982 38.7061 48.0122 38.8801 47.7063 38.8591L45.6192 38.7159C44.3583 38.6294 43.4063 37.537 43.4928 36.2762L44.0016 28.8624Z" fill="black"/>
<path fill-rule="evenodd" clip-rule="evenodd" d="M62.2788 30.1753C62.6776 30.2026 62.9788 30.5482 62.9514 30.9471L62.764 33.6785C62.7322 34.1415 63.0819 34.5428 63.545 34.5746L68.6051 34.9219C69.0039 34.9492 69.3051 35.2948 69.2777 35.6937C69.2504 36.0925 68.9048 36.3937 68.5059 36.3663L63.4458 36.0191C62.185 35.9325 61.233 34.8402 61.3195 33.5793L61.5069 30.8479C61.5343 30.4491 61.8799 30.1479 62.2788 30.1753Z" fill="black"/>
<path fill-rule="evenodd" clip-rule="evenodd" d="M72.6006 24.5074L41.8725 22.3985C40.6396 22.3139 39.5715 23.2447 39.4869 24.4776L36.8552 62.8221C36.7706 64.055 37.7015 65.1231 38.9344 65.2077L69.6625 67.3166C70.8954 67.4012 71.9634 66.4704 72.0481 65.2375L74.6797 26.893C74.7643 25.6601 73.8335 24.592 72.6006 24.5074ZM42.0167 20.2974C39.6234 20.1332 37.5501 21.9402 37.3858 24.3334L34.7541 62.6779C34.5899 65.0712 36.3969 67.1445 38.7902 67.3088L69.5183 69.4177C71.9116 69.5819 73.9849 67.775 74.1491 65.3817L76.7808 27.0372C76.945 24.6439 75.1381 22.5706 72.7448 22.4064L42.0167 20.2974Z" fill="black"/>
<path d="M41.5132 44.9347C41.553 44.3545 42.0557 43.9165 42.6359 43.9563L68.8992 45.7588C69.4794 45.7986 69.9174 46.3012 69.8776 46.8814V46.8814C69.8378 47.4616 69.3352 47.8997 68.755 47.8599L42.4917 46.0574C41.9115 46.0175 41.4734 45.5149 41.5132 44.9347V44.9347Z" fill="black"/>
<path d="M40.9621 49.1188C41.0019 48.5386 41.5045 48.1006 42.0847 48.1404L68.6107 49.9609C69.1909 50.0008 69.6289 50.5034 69.5891 51.0836V51.0836C69.5493 51.6638 69.0467 52.1018 68.4665 52.062L41.9405 50.2415C41.3603 50.2016 40.9223 49.699 40.9621 49.1188V49.1188Z" fill="black"/>
<path d="M40.9364 53.339C40.9763 52.7588 41.4789 52.3207 42.0591 52.3605L68.8477 54.1991C69.4279 54.2389 69.8659 54.7415 69.8261 55.3217V55.3217C69.7863 55.9019 69.2837 56.34 68.7035 56.3001L41.9149 54.4616C41.3347 54.4218 40.8966 53.9191 40.9364 53.339V53.339Z" fill="black"/>
<path d="M46.8249 59.8121C46.7005 61.6252 45.1298 62.9942 43.3167 62.8697C41.5036 62.7453 40.1346 61.1746 40.2591 59.3615C40.3835 57.5484 41.9542 56.1795 43.7673 56.3039C45.5804 56.4283 46.9493 57.999 46.8249 59.8121Z" fill="black"/>
<path d="M45.5118 59.722C45.4372 60.8099 44.4948 61.6312 43.4069 61.5566C42.319 61.4819 41.4977 60.5395 41.5723 59.4516C41.647 58.3638 42.5894 57.5424 43.6773 57.6171C44.7651 57.6917 45.5865 58.6341 45.5118 59.722Z" fill="white"/>
</svg>
