<svg width="90" height="90" viewBox="0 0 90 90" fill="none" xmlns="http://www.w3.org/2000/svg">
<rect x="0.5" y="0.5" width="89" height="89" stroke="black"/>
<path fill-rule="evenodd" clip-rule="evenodd" d="M12.7754 44.2342L15.7618 42.7456L14.7068 40.8869L11.5895 42.4938C9.60706 43.8447 9.09513 46.5469 10.446 48.5293L30.7155 66.1578L26.8737 59.7847L12.1864 47.3434C11.4905 46.3221 11.7542 44.9301 12.7754 44.2342Z" fill="black"/>
<path fill-rule="evenodd" clip-rule="evenodd" d="M19.8016 36.6369L22.4713 35.7458L22.1158 33.5419L18.8301 34.7683C16.7016 35.875 15.8733 38.4975 16.9799 40.6259L33.69 67.6983L32.2992 61.4485L18.8485 39.6544C18.2784 38.558 18.7051 37.207 19.8016 36.6369Z" fill="black"/>
<path fill-rule="evenodd" clip-rule="evenodd" d="M27.9305 30.7605L34.6821 28.4587L34.7865 26.1864L27.2502 28.7674C24.9799 29.5424 23.7677 32.0111 24.5427 34.2814L33.0952 56.9249L33.4678 52.2129L26.5357 33.6011C26.1365 32.4315 26.761 31.1598 27.9305 30.7605Z" fill="black"/>
<path fill-rule="evenodd" clip-rule="evenodd" d="M72.6006 24.5074L41.8725 22.3985C40.6396 22.3139 39.5715 23.2447 39.4869 24.4776L36.8552 62.8221C36.7706 64.055 37.7015 65.1231 38.9344 65.2077L69.6625 67.3166C70.8954 67.4012 71.9634 66.4704 72.0481 65.2375L74.6797 26.893C74.7643 25.6601 73.8335 24.592 72.6006 24.5074ZM42.0167 20.2974C39.6234 20.1332 37.5501 21.9402 37.3858 24.3334L34.7541 62.6779C34.5899 65.0712 36.3969 67.1445 38.7902 67.3088L69.5183 69.4177C71.9116 69.5819 73.9849 67.775 74.1491 65.3817L76.7808 27.0372C76.945 24.6439 75.1381 22.5706 72.7448 22.4064L42.0167 20.2974Z" fill="black"/>
<path d="M41.5132 44.9347C41.553 44.3545 42.0557 43.9165 42.6359 43.9563L68.8992 45.7588C69.4794 45.7986 69.9174 46.3012 69.8776 46.8814V46.8814C69.8378 47.4616 69.3352 47.8997 68.755 47.8599L42.4917 46.0574C41.9115 46.0175 41.4734 45.5149 41.5132 44.9347V44.9347Z" fill="black"/>
<path d="M40.9621 49.1188C41.0019 48.5386 41.5045 48.1006 42.0847 48.1404L68.6107 49.9609C69.1909 50.0008 69.6289 50.5034 69.5891 51.0836V51.0836C69.5493 51.6638 69.0467 52.1018 68.4665 52.062L41.9405 50.2415C41.3603 50.2016 40.9223 49.699 40.9621 49.1188V49.1188Z" fill="black"/>
<path d="M40.9364 53.339C40.9763 52.7588 41.4789 52.3207 42.0591 52.3605L68.8477 54.1991C69.4279 54.2389 69.8659 54.7415 69.8261 55.3217V55.3217C69.7863 55.9019 69.2837 56.34 68.7035 56.3001L41.9149 54.4616C41.3347 54.4218 40.8966 53.9191 40.9364 53.339V53.339Z" fill="black"/>
<path d="M46.8249 59.8121C46.7005 61.6252 45.1298 62.9942 43.3167 62.8697C41.5036 62.7453 40.1346 61.1746 40.2591 59.3615C40.3835 57.5484 41.9542 56.1795 43.7673 56.3039C45.5804 56.4283 46.9493 57.999 46.8249 59.8121Z" fill="black"/>
<path d="M45.5118 59.722C45.4372 60.8099 44.4948 61.6312 43.4069 61.5566C42.319 61.4819 41.4977 60.5395 41.5723 59.4516C41.647 58.3638 42.5894 57.5424 43.6773 57.6171C44.7651 57.6917 45.5865 58.6341 45.5118 59.722Z" fill="white"/>
<path d="M69.3925 28.9109C69.3826 28.8971 69.3737 28.8885 69.3672 28.8832C69.3288 28.8768 69.299 28.8705 69.2816 28.8668C69.2795 28.8663 69.2776 28.8659 69.2758 28.8655C69.2754 28.8655 69.2751 28.8654 69.2748 28.8653L66.5644 28.6801L63.5452 28.4737L56.3905 27.9848L48.5562 27.4494L45.5953 27.247L43.4692 27.1017C43.4074 27.0975 43.3468 27.1472 43.3422 27.215L43.0436 31.5842C43.039 31.6519 43.0922 31.7094 43.154 31.7137L45.2801 31.859L48.241 32.0613L56.0753 32.5967L63.23 33.0857L66.2492 33.292L68.9868 33.4791L68.9873 33.4792L68.9878 33.4792L68.9883 33.4792L68.9888 33.4793L68.9893 33.4793L68.9898 33.4793L68.9903 33.4794L68.9908 33.4794L68.9912 33.4794L68.9917 33.4795L68.9922 33.4795L68.9927 33.4795L68.9932 33.4796L68.9937 33.4796L68.9942 33.4796L68.9946 33.4797L68.9951 33.4797L68.9956 33.4797L68.9961 33.4798L68.9966 33.4798L68.997 33.4798L68.9975 33.4799L68.998 33.4799L68.9985 33.4799L68.9989 33.48L68.9994 33.48L68.9999 33.48L69.0004 33.4801L69.0008 33.4801L69.0013 33.4801L69.0018 33.4802L69.0023 33.4802L69.0027 33.4802L69.0032 33.4803L69.0037 33.4803L69.0042 33.4803L69.0046 33.4804L69.0051 33.4804L69.0056 33.4804L69.006 33.4805L69.0065 33.4805L69.007 33.4805L69.0074 33.4806L69.0079 33.4806L69.0084 33.4806L69.0088 33.4806L69.0093 33.4807L69.0098 33.4807L69.0102 33.4807L69.0107 33.4808L69.0111 33.4808L69.0116 33.4808L69.0121 33.4809L69.0125 33.4809L69.013 33.4809L69.0135 33.481L69.0139 33.481L69.0144 33.481L69.0148 33.4811L69.0153 33.4811L69.0157 33.4811L69.0162 33.4812L69.0167 33.4812L69.0171 33.4812L69.0176 33.4812L69.018 33.4813L69.0185 33.4813L69.0189 33.4813L69.0194 33.4814L69.0198 33.4814L69.0203 33.4814L69.0207 33.4815L69.0212 33.4815L69.0216 33.4815L69.0221 33.4816L69.0225 33.4816L69.023 33.4816L69.0234 33.4816L69.0239 33.4817L69.0243 33.4817L69.0248 33.4817L69.0252 33.4818L69.0257 33.4818L69.0261 33.4818L69.0266 33.4819L69.027 33.4819L69.0275 33.4819L69.0279 33.482L69.0284 33.482L69.0288 33.482L69.0292 33.482L69.0297 33.4821L69.0301 33.4821L69.0306 33.4821L69.031 33.4822L69.0315 33.4822L69.0319 33.4822L69.0323 33.4823L69.0328 33.4823L69.0332 33.4823L69.0337 33.4823L69.0341 33.4824L69.0345 33.4824L69.035 33.4824L69.0354 33.4825L69.0358 33.4825L69.0363 33.4825L69.0367 33.4826L69.0372 33.4826L69.0376 33.4826L69.038 33.4826L69.0385 33.4827L69.0389 33.4827L69.0393 33.4827L69.0398 33.4828L69.0402 33.4828L69.0406 33.4828L69.0411 33.4829L69.0415 33.4829L69.0419 33.4829L69.0424 33.4829L69.0428 33.483L69.0432 33.483L69.0437 33.483L69.0441 33.4831L69.0445 33.4831L69.045 33.4831L69.0454 33.4831L69.0458 33.4832L69.0462 33.4832L69.0467 33.4832L69.0471 33.4833L69.0475 33.4833L69.048 33.4833L69.0484 33.4834L69.0488 33.4834L69.0492 33.4834L69.0497 33.4834L69.0501 33.4835L69.0505 33.4835L69.0509 33.4835L69.0514 33.4836L69.0518 33.4836L69.0522 33.4836L69.0526 33.4836L69.0531 33.4837L69.0535 33.4837L69.0539 33.4837L69.0543 33.4838L69.0548 33.4838L69.0552 33.4838L69.0556 33.4838L69.056 33.4839L69.0564 33.4839L69.0569 33.4839L69.0573 33.484L69.0577 33.484L69.0581 33.484L69.0586 33.484L69.059 33.4841L69.0594 33.4841L69.0598 33.4841L69.0602 33.4842L69.0607 33.4842L69.0611 33.4842L69.0615 33.4842L69.0619 33.4843L69.0623 33.4843L69.0627 33.4843L69.0632 33.4844L69.0636 33.4844L69.064 33.4844L69.0641 33.4844C69.0686 33.4809 69.0735 33.4764 69.0788 33.4708C69.1035 33.4445 69.1208 33.408 69.1236 33.3665L69.4222 28.9973C69.4234 28.9803 69.4178 28.9464 69.3925 28.9109Z" stroke="black" stroke-width="2"/>
<path d="M72.2409 36.3416L69.6237 36.1627C69.7555 36.4101 69.8699 36.6697 69.9627 36.9382L72.1897 37.0904L72.2409 36.3416ZM54.9003 35.1565L48.7198 34.7341C48.8529 34.9816 48.9665 35.2409 49.0576 35.5095L54.8491 35.9053L60.0261 36.2591C60.1591 36.008 60.3118 35.7667 60.4829 35.538L54.9003 35.1565Z" stroke="black" stroke-width="2"/>
<path d="M65.1071 35.8003L65.1071 35.8003C66.6573 35.9063 67.8746 37.2949 67.7689 38.8416L65.1071 35.8003ZM65.1071 35.8003L65.0851 35.7988C63.528 35.7168 62.16 36.9322 62.0562 38.4512C61.9504 40 63.1428 41.3801 64.6948 41.5104L64.7167 41.5119C66.2604 41.6174 67.6628 40.3947 67.7689 38.8416L65.1071 35.8003ZM64.7022 41.2963L64.6865 41.2953L64.6709 41.2937C63.2557 41.1522 62.1654 39.9158 62.2646 38.4654C62.3601 37.0668 63.5764 35.9201 65.0627 36.0217L65.0918 36.0236C66.5253 36.1216 67.6608 37.3613 67.5606 38.8274L67.5606 38.8274C67.4618 40.2727 66.1794 41.3973 64.7313 41.2983L64.7022 41.2963Z" stroke="black" stroke-width="2"/>
<path d="M44.313 34.3739L44.313 34.3739C45.8632 34.4799 47.0806 35.8685 46.9749 37.4152L44.313 34.3739ZM44.313 34.3739L44.2911 34.3724C42.734 34.2904 41.366 35.5058 41.2621 37.0248C41.1563 38.5736 42.3488 39.9537 43.9007 40.084L43.9227 40.0855C45.4663 40.191 46.8687 38.9683 46.9749 37.4152L44.313 34.3739ZM43.9081 39.8699L43.8925 39.8688L43.8768 39.8673C42.4616 39.7258 41.3714 38.4894 41.4705 37.039C41.5661 35.6404 42.7823 34.4937 44.2686 34.5952L44.2978 34.5972C45.7313 34.6952 46.8667 35.9349 46.7665 37.4009L46.7665 37.401C46.6677 38.8463 45.3854 39.9709 43.9373 39.8719L43.9081 39.8699Z" stroke="black" stroke-width="2"/>
</svg>
