<svg width="90" height="90" viewBox="0 0 90 90" fill="none" xmlns="http://www.w3.org/2000/svg">
<rect x="0.5" y="0.5" width="89" height="89" stroke="black"/>
<path fill-rule="evenodd" clip-rule="evenodd" d="M68.9753 14H30.0659V17.0993H65.6809C65.9732 17.0993 66.2138 17.3376 66.2138 17.6282V64.8166H68.9753V14ZM34.5658 67.3524L34.5874 67.3567H34.5981H34.6265L34.648 67.3609H34.6615H34.67H34.6914L34.7134 67.3651H34.722H34.7327H34.7542H34.7762H34.7826H34.7955L34.8175 67.3693H34.839H34.8433H34.861H34.8826H34.9039H34.9061H34.9259H34.9473H34.9693H34.9909H35.0123H35.0172H35.0343H35.0557H35.0642H35.0777H35.0992H35.112L35.1212 67.3651H35.1427H35.1599H35.1641H35.1861H35.2075L35.2295 67.3609H35.2511H35.2554H35.2725H35.2945L35.303 67.3567H35.3137H35.3357L35.3507 67.3524H35.3571H35.3791H35.3984L35.4199 67.3479H35.4419H35.4462L35.4633 67.3437H35.4853L35.4939 67.3394C36.3953 67.2439 37.2928 66.8757 37.9948 66.2949L38.0126 66.2818L38.0382 66.2599L38.0425 66.2557L38.0709 66.234L38.0816 66.2253L38.0987 66.208C38.9964 65.4017 39.5556 64.448 39.7288 63.1564L39.731 63.126L39.7331 63.1171L39.7352 63.0826L39.7374 63.065L39.7395 63.0433L39.7417 63.0043L39.7459 62.9652L39.7481 62.9437L39.7502 62.9264L39.7524 62.8872V62.8829L39.7545 62.8482V62.8222L39.7572 62.8091L39.7594 62.7703V62.7613V62.7312L39.7615 62.7008V62.6922V62.6529V62.636L39.7637 62.6141V62.575L39.7615 62.5145V62.454V62.4494L39.7594 62.3932V62.3889L39.7545 62.3327V62.3283L39.7524 62.2719V62.2676L39.7481 62.2114V62.2071L39.7417 62.1509V62.1464C39.666 61.392 39.4773 60.8071 39.0983 60.1396L39.0827 60.1092L39.0677 60.0875C38.8703 59.7622 38.6365 59.463 38.3701 59.1944L38.3588 59.1857C38.2504 59.0771 38.1378 58.973 38.0188 58.8779H38.0167C37.8992 58.7781 37.7759 58.687 37.6483 58.6005L37.453 58.4746L37.4054 58.4445C36.9415 58.1844 36.5126 58.0022 35.9919 57.8895L35.9356 57.8808H35.9334L35.8751 57.8679L35.8165 57.8548L35.7582 57.8462L35.6977 57.8374L35.6392 57.8287H35.637L35.578 57.82L35.5195 57.8111H35.5174L35.4589 57.8068L35.3984 57.7983L35.3379 57.794L35.2774 57.7895L35.2162 57.7853H35.2141H35.1534L35.0929 57.781H35.0908H35.0303H34.9698H34.9065H34.8437C33.8341 57.8244 32.9322 58.1148 32.1 58.7347L32.0545 58.7695L32.0089 58.8042L31.9634 58.8389L31.9179 58.878L31.8749 58.9127L31.8315 58.9518L31.7881 58.9908L31.7448 59.0254L31.7012 59.0646L31.6621 59.1034L31.6192 59.1469L31.58 59.186L31.5367 59.2248L31.4975 59.2684L31.4584 59.3116L31.4198 59.3506L31.3807 59.394L31.3437 59.4372H31.3415L31.3072 59.4804L31.2681 59.524L31.1984 59.6149H31.1962L31.127 59.7061L31.092 59.7539L31.06 59.8018L30.9946 59.8969H30.9924L30.9602 59.9446L30.9296 59.9924L30.8995 60.0403L30.869 60.0881L30.8384 60.1402L30.8083 60.1879L30.782 60.24H30.7799L30.7521 60.2919C30.4399 60.8769 30.2748 61.4187 30.1992 62.0864L30.1927 62.1471L30.1885 62.2077L30.1842 62.2682L30.1799 62.3289L30.1778 62.3895L30.1756 62.45V62.5153V62.5758V62.6149V62.6367V62.6537V62.6972V62.736L30.1778 62.7579V62.7752L30.1799 62.8141V62.8187L30.182 62.8534L30.1842 62.8794V62.8966L30.1885 62.9313V62.94L30.1906 62.975L30.1927 63.001V63.0138L30.197 63.0529L30.1992 63.0616L30.2013 63.0919L30.2056 63.1221V63.131L30.2098 63.17L30.212 63.1788L30.2141 63.2091L30.2184 63.2393V63.2436C30.5518 65.4839 32.3507 67.1703 34.5658 67.3524ZM37.2705 72.4327V69.5241V69.511V67.9634C36.419 68.3278 35.5278 68.4751 34.6243 68.4272L34.6092 68.423H34.5872H34.5851L34.5116 68.4187H34.5094L34.4832 68.4146H34.4746H34.4575L34.4355 68.4103H34.4334L34.3314 68.4014H34.3229C33.7421 68.3365 33.1829 68.1889 32.6629 67.9635V69.5111V69.5242V72.4891L34.7068 70.6338C34.9128 70.4431 35.2335 70.4474 35.435 70.6425L37.2705 72.4327ZM36.3733 61.171C36.0135 60.8112 35.5148 60.59 34.969 60.59C34.4312 60.59 33.946 60.8024 33.5883 61.1451L33.5641 61.171C33.2043 61.5307 32.9813 62.0293 32.9813 62.5753C32.9813 63.1214 33.2043 63.6201 33.5599 63.9799C33.9218 64.3396 34.4184 64.5606 34.969 64.5606C35.5149 64.5606 36.0135 64.3397 36.3712 63.9799C36.731 63.6201 36.954 63.1214 36.954 62.5753C36.954 62.0293 36.7288 61.5307 36.3733 61.171ZM34.969 59.5238C35.8077 59.5238 36.5707 59.8661 37.123 60.4166C37.6758 60.9672 38.0185 61.7345 38.0185 62.5755C38.0185 63.4164 37.6758 64.1791 37.1252 64.7299C36.5707 65.2847 35.8077 65.6274 34.969 65.6274C34.1255 65.6274 33.3648 65.2847 32.8124 64.7342C32.2596 64.1791 31.9169 63.4164 31.9169 62.5755C31.9169 61.7345 32.2596 60.9674 32.8103 60.4166L32.8404 60.3906C33.3909 59.8533 34.1412 59.5238 34.969 59.5238ZM59.4754 22.4961H31.9105V25.5912H59.4754V22.4961V22.4961ZM31.3776 21.4295H60.0089C60.3011 21.4295 60.5399 21.668 60.5399 21.9627V26.124C60.5399 26.4189 60.3011 26.6572 60.0089 26.6572H31.3776C31.0847 26.6572 30.8445 26.4187 30.8445 26.124V21.9627C30.8445 21.668 31.0847 21.4295 31.3776 21.4295ZM21.878 31.7247V30.7668H18.0415V31.7247H21.878ZM21.878 29.7003V26.1546C21.878 26.0592 21.8345 25.968 21.7712 25.9031L21.752 25.8814C21.6913 25.8293 21.6087 25.799 21.5225 25.799H18.0828L18.0501 25.8077L18.0415 25.8378V29.7002H21.878V29.7003ZM18.0415 56.4372H19.4244V34.9455C19.4244 34.6506 19.6652 34.4123 19.9573 34.4123C20.2522 34.4123 20.4909 34.6508 20.4909 34.9455V56.4372H21.878V32.791H18.0415V56.4372ZM21.878 57.5035H18.0415V59.6623L19.9575 63.7024L21.8782 59.6623V57.5035H21.878ZM31.3776 32.6526C31.0847 32.6526 30.8445 32.4097 30.8445 32.1194C30.8445 31.8245 31.0847 31.5862 31.3776 31.5862H41.8631C42.158 31.5862 42.3966 31.8247 42.3966 32.1194C42.3966 32.4097 42.158 32.6526 41.8631 32.6526H31.3776ZM31.3776 36.3111C31.0847 36.3111 30.8445 36.0726 30.8445 35.782C30.8445 35.4874 31.0847 35.2491 31.3776 35.2491H58.1987C58.4936 35.2491 58.7322 35.4876 58.7322 35.782C58.7322 36.0726 58.4934 36.3111 58.1987 36.3111H31.3776ZM31.3776 39.9739C31.0847 39.9739 30.8445 39.7355 30.8445 39.4407C30.8445 39.1504 31.0847 38.9077 31.3776 38.9077H58.1987C58.4936 38.9077 58.7322 39.1504 58.7322 39.4407C58.7322 39.7357 58.4934 39.9739 58.1987 39.9739H31.3776ZM31.3776 43.6367C31.0847 43.6367 30.8445 43.3983 30.8445 43.1034C30.8445 42.8087 31.0847 42.5705 31.3776 42.5705H58.1987C58.4936 42.5705 58.7322 42.8089 58.7322 43.1034C58.7322 43.3985 58.4934 43.6367 58.1987 43.6367H31.3776ZM31.3776 47.2996C31.0847 47.2996 30.8445 47.0611 30.8445 46.7667C30.8445 46.4716 31.0847 46.2335 31.3776 46.2335H58.1987C58.4936 46.2335 58.7322 46.4718 58.7322 46.7667C58.7322 47.0613 58.4934 47.2996 58.1987 47.2996H31.3776ZM31.3776 50.9622C31.0847 50.9622 30.8445 50.7239 30.8445 50.4293C30.8445 50.1344 31.0847 49.8961 31.3776 49.8961H58.1987C58.4936 49.8961 58.7322 50.1346 58.7322 50.4293C58.7322 50.724 58.4934 50.9622 58.1987 50.9622H31.3776ZM47.713 54.6255C47.4182 54.6255 47.1801 54.3825 47.1801 54.0922C47.1801 53.7975 47.4182 53.559 47.713 53.559H58.1987C58.4936 53.559 58.7322 53.7977 58.7322 54.0922C58.7322 54.3825 58.4934 54.6255 58.1987 54.6255H47.713ZM52.6676 65.1805C52.4162 65.3322 52.089 65.2584 51.9352 65.0072C51.7792 64.76 51.8568 64.4306 52.1061 64.2745C52.1168 64.2703 56.1246 61.7908 57.2844 64.4305C57.3623 64.6082 57.4554 64.7515 57.5575 64.8596C57.7782 65.0939 58.071 65.1936 58.3918 65.1978C58.7714 65.2065 59.2025 65.0853 59.6294 64.8986C60.2734 64.6169 60.8931 64.179 61.3437 63.7587C61.5587 63.555 61.8943 63.5681 62.096 63.7804C62.2956 63.9929 62.2868 64.331 62.0723 64.5302C61.5411 65.0288 60.8129 65.5402 60.0589 65.874C59.5061 66.1169 58.9277 66.2687 58.379 66.2598C57.7764 66.2511 57.2192 66.0518 56.7839 65.588C56.5995 65.393 56.4391 65.1458 56.3115 64.8596C55.6415 63.3341 52.6764 65.1762 52.6676 65.1805ZM15.3798 76C15.0875 76 14.8467 75.7617 14.8467 75.4671C14.8467 75.1765 15.0875 74.9338 15.3798 74.9338H62.3302C62.6247 74.9338 62.8633 75.1765 62.8633 75.4671C62.8633 75.7618 62.6245 76 62.3302 76H15.3798ZM42.8732 73.1433C42.5805 73.1433 42.3403 72.905 42.3403 72.6104C42.3403 72.3198 42.5805 72.0772 42.8732 72.0772H75.3627C75.6548 72.0772 75.8956 72.3198 75.8956 72.6104C75.8956 72.9051 75.6548 73.1433 75.3627 73.1433H42.8732ZM78.6892 73.1433C78.3943 73.1433 78.1563 72.905 78.1563 72.6104C78.1563 72.3198 78.3945 72.0772 78.6892 72.0772H82.7511C83.0438 72.0772 83.282 72.3198 83.282 72.6104C83.282 72.9051 83.0438 73.1433 82.7511 73.1433H78.6892ZM13.5335 73.2304C13.2387 73.2304 13 72.9919 13 72.6972C13 72.4069 13.2387 72.1684 13.5335 72.1684H28.926C29.2209 72.1684 29.4595 72.4069 29.4595 72.6972C29.4595 72.9921 29.2209 73.2304 28.926 73.2304H13.5335ZM65.1473 18.1612H29.52H26.2384V68.978H31.5962V67.3696C31.3212 67.1748 31.0633 66.9579 30.8247 66.7195L30.7947 66.6848L30.7599 66.6499L30.7448 66.637L30.7315 66.6198L30.6774 66.5634L30.6494 66.5331H30.6473C29.806 65.5924 29.2902 64.4697 29.1475 63.2516L29.1454 63.2428L29.1405 63.2039L29.1383 63.169L29.1362 63.1562L29.1319 63.1084L29.1298 63.0953L29.1277 63.0606L29.1255 63.0216L29.1234 63.0127L29.1212 62.9649L29.1191 62.9478L29.117 62.913L29.1148 62.874V62.8655L29.1127 62.8176V62.8002L29.1105 62.77L29.1084 62.7221V62.6743V62.6483V62.6224V62.5746V62.5009V62.4966V62.4228L29.1127 62.3492L29.1148 62.2759V62.2714L29.1191 62.1979L29.1255 62.1243L29.1298 62.0506L29.1383 61.977L29.1475 61.9032L29.1561 61.8296L29.1646 61.7559L29.1753 61.6826L29.186 61.6131V61.6089L29.1995 61.5394L29.2123 61.4658L29.2251 61.3964L29.2422 61.3229L29.2578 61.2537L29.2728 61.1842V61.1799L29.3119 61.0413L29.3726 60.8334L29.394 60.7681V60.7639L29.416 60.6988V60.6945L29.4395 60.6296C29.7322 59.7927 30.2132 59.0429 30.8245 58.4317C31.0546 58.2019 31.3061 57.9894 31.5747 57.7989L31.7499 57.6774L31.8083 57.6384C32.7559 57.0533 33.6942 56.754 34.817 56.7193L34.8905 56.7151H34.9687H35.0422L35.1183 56.7193H35.1939L35.2674 56.7237L35.3435 56.7278L35.417 56.7321H35.4191L35.4931 56.741L35.5644 56.7452H35.5666L35.6384 56.7538H35.6405L35.7119 56.7628H35.714L35.7854 56.7715H35.7881L35.8573 56.7844H35.8595L35.9308 56.7932H35.933L36.0048 56.8061L36.074 56.8192H36.0783L36.1475 56.8363L36.2173 56.8494H36.2216L36.2908 56.8669L36.3606 56.884H36.3628L36.499 56.919H36.5033L36.7093 56.9795H36.7114L36.7768 57.0012H36.779L36.8459 57.023L36.9129 57.049C37.7499 57.3393 38.5016 57.8206 39.1129 58.4317L39.1343 58.4577L39.1912 58.5142L39.2083 58.5313L39.2384 58.5663L39.2561 58.5833L39.286 58.6183L39.3038 58.6354L39.3316 58.6702L39.3514 58.6875L39.3771 58.7225L39.397 58.7394L39.4249 58.7744C40.2792 59.771 40.7232 60.9328 40.8164 62.1988V62.2031L40.8206 62.2723V62.2768L40.8228 62.3501L40.8249 62.4238V62.4283L40.8271 62.4975V62.5018V62.5755V62.6233V62.6493V62.6711L40.8249 62.7188V62.7273V62.7666L40.8228 62.8013V62.8141L40.8206 62.8619V62.8751L40.8185 62.9098L40.8164 62.9532V62.9573L40.8121 63.0051V63.027L40.8078 63.0529L40.8035 63.1008L40.7993 63.144C40.7666 63.5296 40.6776 63.9547 40.5649 64.3186L40.5606 64.3229L40.5478 64.3663L40.5435 64.388L40.5349 64.4095L40.5193 64.4531V64.4572L40.5042 64.4963C40.2093 65.3417 39.7284 66.1044 39.1128 66.7201L39.0893 66.742L39.0779 66.7505L39.0715 66.7594L39.0416 66.7854L39.0281 66.7982L39.0132 66.8158L38.9831 66.8418L38.9783 66.8459L38.9527 66.872L38.9264 66.8937L38.9221 66.898L38.89 66.9282L38.8744 66.9414L38.8595 66.9542L38.8268 66.9846H38.8225L38.7968 67.0106L38.7705 67.0324L38.7663 67.0366L38.734 67.0625L38.7163 67.0757L38.6685 67.1192L38.6621 67.1233L38.6364 67.1452L38.6101 67.1667L38.6058 67.1712L38.5716 67.1971L38.5539 67.2101L38.5389 67.2187L38.5062 67.2447L38.4998 67.2492L38.472 67.2708L38.4436 67.2925L38.4393 67.2968L38.4066 67.3186L38.3873 67.3317L38.3724 67.3446L38.3375 67.3706V68.979H65.1478V65.3635V18.1612H65.1473Z" fill="black"/>
</svg>
