<svg width="329" height="368" viewBox="0 0 329 368" fill="none" xmlns="http://www.w3.org/2000/svg">
<mask id="path-1-inside-1" fill="white">
<path d="M266.401 105.968C261.654 88.3404 226.316 71 164.5 71C102.684 71 67.3423 88.3404 62.5986 105.968C62.2542 106.572 62 107.234 62 107.982V110.036V157.291V159.345V161.4V206.6V208.655V210.709V260.018C62 260.684 62.1763 261.313 62.4797 261.871C67.3218 281.985 110.642 297 164.5 297C218.235 297 261.485 282.047 266.487 262.007C266.815 261.419 267 260.741 267 260.018V210.709V208.655V206.6V161.4V159.345V157.291V110.036V107.982C267 107.234 266.746 106.572 266.401 105.968ZM258.476 210.647C258.361 211.145 258.201 211.638 258 212.139C257.836 212.546 257.636 212.953 257.414 213.359C257.139 213.865 256.832 214.37 256.467 214.876C256.196 215.258 255.889 215.636 255.569 216.014C255.114 216.552 254.63 217.09 254.081 217.625C253.749 217.949 253.384 218.27 253.015 218.594C252.342 219.182 251.641 219.766 250.858 220.345C250.522 220.596 250.161 220.838 249.805 221.085C248.878 221.726 247.91 222.362 246.848 222.987C246.57 223.156 246.27 223.316 245.979 223.48C244.758 224.17 243.482 224.857 242.105 225.522C241.929 225.609 241.744 225.691 241.564 225.773C240.026 226.5 238.419 227.215 236.701 227.906C236.652 227.926 236.603 227.943 236.553 227.963C227.242 231.69 215.332 234.825 201.453 236.88C201.384 236.888 201.314 236.896 201.244 236.909C198.546 237.307 195.779 237.661 192.938 237.973C192.474 238.022 191.986 238.055 191.519 238.104C189.038 238.363 186.529 238.602 183.946 238.791C182.765 238.877 181.527 238.918 180.326 238.992C178.383 239.107 176.46 239.234 174.467 239.304C171.212 239.407 167.891 239.473 164.5 239.473C161.109 239.473 157.788 239.407 154.529 239.292C152.536 239.222 150.613 239.091 148.67 238.98C147.469 238.91 146.23 238.865 145.05 238.778C142.467 238.589 139.957 238.351 137.477 238.092C137.009 238.043 136.522 238.01 136.058 237.961C133.217 237.648 130.45 237.291 127.752 236.896C127.682 236.888 127.612 236.88 127.543 236.868C113.664 234.813 101.754 231.678 92.4425 227.951C92.3933 227.934 92.3441 227.914 92.2949 227.893C90.577 227.203 88.9657 226.488 87.4323 225.761C87.256 225.674 87.0674 225.592 86.8911 225.51C85.5135 224.844 84.2384 224.162 83.0166 223.468C82.7296 223.303 82.4262 223.143 82.1474 222.975C81.0855 222.35 80.1179 221.713 79.1913 221.072C78.8387 220.826 78.4738 220.583 78.1376 220.333C77.3545 219.753 76.6534 219.17 75.981 218.582C75.6161 218.262 75.2471 217.941 74.915 217.612C74.3656 217.078 73.8818 216.544 73.4267 216.002C73.1069 215.624 72.7994 215.246 72.5288 214.863C72.168 214.358 71.8605 213.853 71.5817 213.347C71.3603 212.94 71.1635 212.534 70.9954 212.127C70.7945 211.63 70.6346 211.132 70.5198 210.635C70.3681 209.982 70.2 209.316 70.2 208.655C70.2 208.19 70.2533 207.726 70.3271 207.266C70.4296 206.645 70.3722 206.025 70.2 205.437V174.931C70.3148 175.038 70.4583 175.141 70.5772 175.248C71.471 176.037 72.3812 176.821 73.4062 177.577C88.8509 189.284 119.736 198.382 164.5 198.382C209.075 198.382 239.883 189.358 255.393 177.721C256.631 176.817 257.746 175.885 258.796 174.935L258.8 174.931V205.437C258.628 206.025 258.57 206.645 258.673 207.266C258.751 207.726 258.8 208.19 258.8 208.655C258.8 209.316 258.632 209.982 258.476 210.647ZM258.8 125.622V156.128C258.628 156.716 258.57 157.336 258.673 157.957C258.751 158.417 258.8 158.881 258.8 159.345C258.8 160.007 258.632 160.673 258.476 161.338C258.361 161.836 258.201 162.329 258 162.83C257.836 163.237 257.636 163.644 257.414 164.05C257.139 164.556 256.832 165.061 256.467 165.567C256.196 165.949 255.889 166.327 255.569 166.705C255.114 167.243 254.63 167.781 254.081 168.316C253.749 168.64 253.384 168.961 253.015 169.285C252.342 169.873 251.641 170.456 250.858 171.036C250.522 171.286 250.161 171.529 249.805 171.775C248.878 172.416 247.91 173.053 246.848 173.678C246.57 173.846 246.27 174.007 245.979 174.171C244.758 174.861 243.482 175.548 242.105 176.213C241.929 176.3 241.744 176.382 241.564 176.464C240.026 177.191 238.419 177.906 236.701 178.597C236.652 178.617 236.603 178.634 236.553 178.654C227.242 182.381 215.332 185.516 201.453 187.571C201.384 187.579 201.314 187.587 201.244 187.6C198.546 187.998 195.779 188.352 192.938 188.664C192.474 188.713 191.986 188.746 191.519 188.795C189.038 189.054 186.529 189.293 183.946 189.482C182.765 189.568 181.527 189.609 180.326 189.683C178.383 189.798 176.46 189.925 174.467 189.995C171.212 190.098 167.891 190.164 164.5 190.164C161.109 190.164 157.788 190.098 154.529 189.983C152.536 189.913 150.613 189.781 148.67 189.671C147.469 189.601 146.23 189.555 145.05 189.469C142.467 189.28 139.957 189.042 137.477 188.783C137.009 188.734 136.522 188.701 136.058 188.651C133.217 188.339 130.45 187.982 127.752 187.587C127.682 187.579 127.612 187.571 127.543 187.558C113.664 185.504 101.754 182.369 92.4425 178.642C92.3933 178.625 92.3441 178.605 92.2949 178.584C90.577 177.894 88.9657 177.179 87.4323 176.452C87.256 176.365 87.0674 176.283 86.8911 176.201C85.5135 175.535 84.2384 174.853 83.0166 174.159C82.7296 173.994 82.4262 173.834 82.1474 173.666C81.0855 173.041 80.1179 172.404 79.1913 171.763C78.8387 171.517 78.4738 171.274 78.1376 171.023C77.3545 170.444 76.6534 169.861 75.981 169.273C75.6161 168.953 75.2471 168.632 74.915 168.303C74.3656 167.769 73.8818 167.235 73.4267 166.693C73.1069 166.314 72.7994 165.936 72.5288 165.554C72.168 165.049 71.8605 164.543 71.5817 164.038C71.3603 163.631 71.1635 163.224 70.9954 162.818C70.7945 162.32 70.6346 161.823 70.5198 161.326C70.3681 160.673 70.2 160.007 70.2 159.345C70.2 158.881 70.2533 158.417 70.3271 157.957C70.4296 157.336 70.3722 156.716 70.2 156.128V125.622C70.692 126.07 71.2537 126.51 71.7867 126.953C72.0819 127.2 72.3566 127.447 72.6682 127.693C73.8982 128.663 75.2266 129.62 76.6657 130.553C76.965 130.746 77.3012 130.935 77.6128 131.128C78.8182 131.88 80.0933 132.616 81.434 133.339C81.9301 133.606 82.4262 133.869 82.9387 134.132C84.4352 134.896 86.0055 135.64 87.6578 136.359C87.9284 136.478 88.1744 136.602 88.4491 136.717C90.372 137.534 92.4138 138.315 94.5376 139.071C95.1239 139.281 95.7389 139.478 96.3416 139.683C98.0308 140.255 99.7774 140.801 101.585 141.331C102.237 141.52 102.877 141.717 103.545 141.898C105.944 142.564 108.42 143.197 111.02 143.78C111.376 143.862 111.762 143.928 112.123 144.006C114.414 144.508 116.792 144.972 119.236 145.407C120.064 145.555 120.905 145.695 121.749 145.835C124.074 146.217 126.468 146.566 128.924 146.887C129.556 146.969 130.158 147.063 130.798 147.141C133.848 147.511 137.005 147.828 140.248 148.099C141.048 148.165 141.88 148.214 142.692 148.271C145.287 148.46 147.94 148.617 150.654 148.74C151.642 148.785 152.626 148.83 153.635 148.867C157.169 148.986 160.769 149.073 164.5 149.073C168.231 149.073 171.831 148.986 175.365 148.867C176.369 148.83 177.354 148.785 178.346 148.74C181.06 148.617 183.713 148.46 186.308 148.271C187.12 148.21 187.948 148.165 188.752 148.099C191.995 147.832 195.152 147.511 198.202 147.141C198.842 147.063 199.444 146.969 200.076 146.887C202.532 146.566 204.922 146.217 207.251 145.835C208.095 145.695 208.936 145.555 209.764 145.407C212.208 144.972 214.586 144.508 216.878 144.006C217.238 143.928 217.624 143.858 217.98 143.78C220.58 143.197 223.056 142.56 225.455 141.898C226.123 141.713 226.763 141.52 227.415 141.331C229.223 140.801 230.969 140.255 232.658 139.683C233.261 139.478 233.876 139.281 234.462 139.071C236.586 138.315 238.632 137.534 240.551 136.717C240.826 136.602 241.072 136.478 241.342 136.359C242.994 135.636 244.565 134.896 246.061 134.132C246.574 133.869 247.074 133.606 247.566 133.339C248.907 132.62 250.182 131.884 251.387 131.128C251.699 130.935 252.035 130.746 252.334 130.553C253.773 129.62 255.102 128.667 256.332 127.693C256.639 127.447 256.914 127.2 257.213 126.953C257.746 126.51 258.308 126.07 258.8 125.622ZM164.5 79.2182C220.075 79.2182 258.8 95.4573 258.8 110.036C258.8 124.615 220.075 140.855 164.5 140.855C108.924 140.855 70.2 124.615 70.2 110.036C70.2 95.4573 108.924 79.2182 164.5 79.2182ZM258.8 258.798C258.743 258.979 258.702 259.163 258.669 259.353C256.344 273.566 217.948 288.782 164.5 288.782C111.052 288.782 72.6559 273.566 70.3312 259.353C70.2984 259.168 70.2533 258.987 70.2 258.814V224.24C70.3148 224.347 70.4583 224.45 70.5772 224.557C71.471 225.346 72.3812 226.131 73.4062 226.887C88.8509 238.593 119.736 247.691 164.5 247.691C209.075 247.691 239.883 238.667 255.393 227.03C256.631 226.126 257.746 225.194 258.796 224.244L258.8 224.24V258.798V258.798Z"/>
</mask>
<path d="M266.401 105.968C261.654 88.3404 226.316 71 164.5 71C102.684 71 67.3423 88.3404 62.5986 105.968C62.2542 106.572 62 107.234 62 107.982V110.036V157.291V159.345V161.4V206.6V208.655V210.709V260.018C62 260.684 62.1763 261.313 62.4797 261.871C67.3218 281.985 110.642 297 164.5 297C218.235 297 261.485 282.047 266.487 262.007C266.815 261.419 267 260.741 267 260.018V210.709V208.655V206.6V161.4V159.345V157.291V110.036V107.982C267 107.234 266.746 106.572 266.401 105.968ZM258.476 210.647C258.361 211.145 258.201 211.638 258 212.139C257.836 212.546 257.636 212.953 257.414 213.359C257.139 213.865 256.832 214.37 256.467 214.876C256.196 215.258 255.889 215.636 255.569 216.014C255.114 216.552 254.63 217.09 254.081 217.625C253.749 217.949 253.384 218.27 253.015 218.594C252.342 219.182 251.641 219.766 250.858 220.345C250.522 220.596 250.161 220.838 249.805 221.085C248.878 221.726 247.91 222.362 246.848 222.987C246.57 223.156 246.27 223.316 245.979 223.48C244.758 224.17 243.482 224.857 242.105 225.522C241.929 225.609 241.744 225.691 241.564 225.773C240.026 226.5 238.419 227.215 236.701 227.906C236.652 227.926 236.603 227.943 236.553 227.963C227.242 231.69 215.332 234.825 201.453 236.88C201.384 236.888 201.314 236.896 201.244 236.909C198.546 237.307 195.779 237.661 192.938 237.973C192.474 238.022 191.986 238.055 191.519 238.104C189.038 238.363 186.529 238.602 183.946 238.791C182.765 238.877 181.527 238.918 180.326 238.992C178.383 239.107 176.46 239.234 174.467 239.304C171.212 239.407 167.891 239.473 164.5 239.473C161.109 239.473 157.788 239.407 154.529 239.292C152.536 239.222 150.613 239.091 148.67 238.98C147.469 238.91 146.23 238.865 145.05 238.778C142.467 238.589 139.957 238.351 137.477 238.092C137.009 238.043 136.522 238.01 136.058 237.961C133.217 237.648 130.45 237.291 127.752 236.896C127.682 236.888 127.612 236.88 127.543 236.868C113.664 234.813 101.754 231.678 92.4425 227.951C92.3933 227.934 92.3441 227.914 92.2949 227.893C90.577 227.203 88.9657 226.488 87.4323 225.761C87.256 225.674 87.0674 225.592 86.8911 225.51C85.5135 224.844 84.2384 224.162 83.0166 223.468C82.7296 223.303 82.4262 223.143 82.1474 222.975C81.0855 222.35 80.1179 221.713 79.1913 221.072C78.8387 220.826 78.4738 220.583 78.1376 220.333C77.3545 219.753 76.6534 219.17 75.981 218.582C75.6161 218.262 75.2471 217.941 74.915 217.612C74.3656 217.078 73.8818 216.544 73.4267 216.002C73.1069 215.624 72.7994 215.246 72.5288 214.863C72.168 214.358 71.8605 213.853 71.5817 213.347C71.3603 212.94 71.1635 212.534 70.9954 212.127C70.7945 211.63 70.6346 211.132 70.5198 210.635C70.3681 209.982 70.2 209.316 70.2 208.655C70.2 208.19 70.2533 207.726 70.3271 207.266C70.4296 206.645 70.3722 206.025 70.2 205.437V174.931C70.3148 175.038 70.4583 175.141 70.5772 175.248C71.471 176.037 72.3812 176.821 73.4062 177.577C88.8509 189.284 119.736 198.382 164.5 198.382C209.075 198.382 239.883 189.358 255.393 177.721C256.631 176.817 257.746 175.885 258.796 174.935L258.8 174.931V205.437C258.628 206.025 258.57 206.645 258.673 207.266C258.751 207.726 258.8 208.19 258.8 208.655C258.8 209.316 258.632 209.982 258.476 210.647ZM258.8 125.622V156.128C258.628 156.716 258.57 157.336 258.673 157.957C258.751 158.417 258.8 158.881 258.8 159.345C258.8 160.007 258.632 160.673 258.476 161.338C258.361 161.836 258.201 162.329 258 162.83C257.836 163.237 257.636 163.644 257.414 164.05C257.139 164.556 256.832 165.061 256.467 165.567C256.196 165.949 255.889 166.327 255.569 166.705C255.114 167.243 254.63 167.781 254.081 168.316C253.749 168.64 253.384 168.961 253.015 169.285C252.342 169.873 251.641 170.456 250.858 171.036C250.522 171.286 250.161 171.529 249.805 171.775C248.878 172.416 247.91 173.053 246.848 173.678C246.57 173.846 246.27 174.007 245.979 174.171C244.758 174.861 243.482 175.548 242.105 176.213C241.929 176.3 241.744 176.382 241.564 176.464C240.026 177.191 238.419 177.906 236.701 178.597C236.652 178.617 236.603 178.634 236.553 178.654C227.242 182.381 215.332 185.516 201.453 187.571C201.384 187.579 201.314 187.587 201.244 187.6C198.546 187.998 195.779 188.352 192.938 188.664C192.474 188.713 191.986 188.746 191.519 188.795C189.038 189.054 186.529 189.293 183.946 189.482C182.765 189.568 181.527 189.609 180.326 189.683C178.383 189.798 176.46 189.925 174.467 189.995C171.212 190.098 167.891 190.164 164.5 190.164C161.109 190.164 157.788 190.098 154.529 189.983C152.536 189.913 150.613 189.781 148.67 189.671C147.469 189.601 146.23 189.555 145.05 189.469C142.467 189.28 139.957 189.042 137.477 188.783C137.009 188.734 136.522 188.701 136.058 188.651C133.217 188.339 130.45 187.982 127.752 187.587C127.682 187.579 127.612 187.571 127.543 187.558C113.664 185.504 101.754 182.369 92.4425 178.642C92.3933 178.625 92.3441 178.605 92.2949 178.584C90.577 177.894 88.9657 177.179 87.4323 176.452C87.256 176.365 87.0674 176.283 86.8911 176.201C85.5135 175.535 84.2384 174.853 83.0166 174.159C82.7296 173.994 82.4262 173.834 82.1474 173.666C81.0855 173.041 80.1179 172.404 79.1913 171.763C78.8387 171.517 78.4738 171.274 78.1376 171.023C77.3545 170.444 76.6534 169.861 75.981 169.273C75.6161 168.953 75.2471 168.632 74.915 168.303C74.3656 167.769 73.8818 167.235 73.4267 166.693C73.1069 166.314 72.7994 165.936 72.5288 165.554C72.168 165.049 71.8605 164.543 71.5817 164.038C71.3603 163.631 71.1635 163.224 70.9954 162.818C70.7945 162.32 70.6346 161.823 70.5198 161.326C70.3681 160.673 70.2 160.007 70.2 159.345C70.2 158.881 70.2533 158.417 70.3271 157.957C70.4296 157.336 70.3722 156.716 70.2 156.128V125.622C70.692 126.07 71.2537 126.51 71.7867 126.953C72.0819 127.2 72.3566 127.447 72.6682 127.693C73.8982 128.663 75.2266 129.62 76.6657 130.553C76.965 130.746 77.3012 130.935 77.6128 131.128C78.8182 131.88 80.0933 132.616 81.434 133.339C81.9301 133.606 82.4262 133.869 82.9387 134.132C84.4352 134.896 86.0055 135.64 87.6578 136.359C87.9284 136.478 88.1744 136.602 88.4491 136.717C90.372 137.534 92.4138 138.315 94.5376 139.071C95.1239 139.281 95.7389 139.478 96.3416 139.683C98.0308 140.255 99.7774 140.801 101.585 141.331C102.237 141.52 102.877 141.717 103.545 141.898C105.944 142.564 108.42 143.197 111.02 143.78C111.376 143.862 111.762 143.928 112.123 144.006C114.414 144.508 116.792 144.972 119.236 145.407C120.064 145.555 120.905 145.695 121.749 145.835C124.074 146.217 126.468 146.566 128.924 146.887C129.556 146.969 130.158 147.063 130.798 147.141C133.848 147.511 137.005 147.828 140.248 148.099C141.048 148.165 141.88 148.214 142.692 148.271C145.287 148.46 147.94 148.617 150.654 148.74C151.642 148.785 152.626 148.83 153.635 148.867C157.169 148.986 160.769 149.073 164.5 149.073C168.231 149.073 171.831 148.986 175.365 148.867C176.369 148.83 177.354 148.785 178.346 148.74C181.06 148.617 183.713 148.46 186.308 148.271C187.12 148.21 187.948 148.165 188.752 148.099C191.995 147.832 195.152 147.511 198.202 147.141C198.842 147.063 199.444 146.969 200.076 146.887C202.532 146.566 204.922 146.217 207.251 145.835C208.095 145.695 208.936 145.555 209.764 145.407C212.208 144.972 214.586 144.508 216.878 144.006C217.238 143.928 217.624 143.858 217.98 143.78C220.58 143.197 223.056 142.56 225.455 141.898C226.123 141.713 226.763 141.52 227.415 141.331C229.223 140.801 230.969 140.255 232.658 139.683C233.261 139.478 233.876 139.281 234.462 139.071C236.586 138.315 238.632 137.534 240.551 136.717C240.826 136.602 241.072 136.478 241.342 136.359C242.994 135.636 244.565 134.896 246.061 134.132C246.574 133.869 247.074 133.606 247.566 133.339C248.907 132.62 250.182 131.884 251.387 131.128C251.699 130.935 252.035 130.746 252.334 130.553C253.773 129.62 255.102 128.667 256.332 127.693C256.639 127.447 256.914 127.2 257.213 126.953C257.746 126.51 258.308 126.07 258.8 125.622ZM164.5 79.2182C220.075 79.2182 258.8 95.4573 258.8 110.036C258.8 124.615 220.075 140.855 164.5 140.855C108.924 140.855 70.2 124.615 70.2 110.036C70.2 95.4573 108.924 79.2182 164.5 79.2182ZM258.8 258.798C258.743 258.979 258.702 259.163 258.669 259.353C256.344 273.566 217.948 288.782 164.5 288.782C111.052 288.782 72.6559 273.566 70.3312 259.353C70.2984 259.168 70.2533 258.987 70.2 258.814V224.24C70.3148 224.347 70.4583 224.45 70.5772 224.557C71.471 225.346 72.3812 226.131 73.4062 226.887C88.8509 238.593 119.736 247.691 164.5 247.691C209.075 247.691 239.883 238.667 255.393 227.03C256.631 226.126 257.746 225.194 258.796 224.244L258.8 224.24V258.798V258.798Z" fill="black" stroke="black" stroke-width="2" mask="url(#path-1-inside-1)"/>
<rect x="1" y="1" width="327" height="366" stroke="black"/>
</svg>
