<svg width="90" height="90" viewBox="0 0 90 90" fill="none" xmlns="http://www.w3.org/2000/svg">
<path d="M71.5752 55.1832C65.1988 52.7652 65.5839 53.7355 65.5839 49.2536C65.5839 46.358 67.0163 47.4207 67.925 41.9069C68.2792 39.7353 68.5718 41.183 69.3265 37.7022C69.727 35.8848 69.0493 35.7462 69.1417 34.8837C69.2187 34.0212 69.2957 33.2357 69.4497 31.4645C69.6346 29.2466 67.6631 23.4556 60.6091 23.4556C53.5551 23.4556 51.5837 29.2466 51.7685 31.4645C51.9071 33.2511 51.9995 34.0212 52.0765 34.8837C52.1535 35.7462 51.4913 35.8848 51.8917 37.7022C52.6464 41.183 52.939 39.7199 53.2933 41.9069C54.202 47.4207 55.6189 46.3734 55.6189 49.2536C55.6189 51.3174 56.0964 52.1799 53.3241 53.489C54.1558 53.7817 55.1261 54.1359 56.2966 54.5826C64.6752 57.7707 64.475 60.8665 64.6906 62.3297C64.8446 63.3308 64.9216 71.3089 64.9524 74.1582H80C80 74.1582 80 61.7598 79.7689 60.312C79.5995 59.1723 78.0747 57.6629 71.5752 55.1832Z" fill="black"/>
<path d="M61.0558 74.1583C61.0558 74.1583 61.0558 71.9866 61.025 69.4761C60.9942 66.6114 60.9172 63.3154 60.7632 62.3297C60.5321 60.8665 58.5607 58.9105 50.1975 55.7223C49.0424 55.2911 48.0721 54.9368 47.225 54.6288C42.0962 52.8114 42.4658 52.2107 42.4658 47.2359C42.4658 43.4933 44.3141 45.9268 45.4846 38.8266C45.9466 36.0234 46.3163 37.8871 47.2866 33.4051C47.8103 31.0641 46.9324 30.8792 47.0402 29.7549C47.148 28.6306 47.2558 27.6295 47.4406 25.3346C47.6871 22.4853 45.1458 15 36.0279 15C26.91 15 24.3842 22.4699 24.6152 25.3346C24.8 27.6295 24.9078 28.6306 25.031 29.7549C25.1388 30.8792 24.2609 31.0487 24.7846 33.4051C25.7703 37.8871 26.14 36.0234 26.602 38.8266C27.7725 45.9268 29.6054 43.4933 29.6054 47.2359C29.6054 53.027 30.1136 52.5958 21.8737 55.7223C13.5105 58.9105 11.5391 60.8665 11.308 62.3297C11 64.1933 11 74.1583 11 74.1583H36.0279H61.0558Z" fill="black"/>
<rect x="0.5" y="0.5" width="89" height="89" stroke="black"/>
</svg>
