<svg width="90" height="90" viewBox="0 0 90 90" fill="none" xmlns="http://www.w3.org/2000/svg">
<path d="M80.3347 35H47.6657C47.2978 35 47 35.2978 47 35.6657V68.3361C47 68.7035 47.2978 69.0018 47.6657 69.0018H63.741C63.8209 69.0355 63.9084 69.0541 64.0002 69.0541C64.0921 69.0541 64.18 69.0355 64.2594 69.0018H80.3343C80.7018 69.0018 81 68.7035 81 68.3361V35.6657C81.0004 35.2978 80.7022 35 80.3347 35ZM79.669 67.6704H64.6659V63.2226C64.6659 62.8551 64.3681 62.5569 64.0002 62.5569C63.6323 62.5569 63.3345 62.8551 63.3345 63.2226V67.6699H48.3314V36.3314H79.669V67.6704Z" fill="black"/>
<path d="M58.467 52.2359C58.5673 52.4902 58.8127 52.6575 59.0865 52.6575H69.0374C69.3152 52.6575 69.5642 52.4844 69.661 52.2243L71.8431 46.3799C71.8706 46.3054 71.8853 46.2264 71.8853 46.1469C71.8853 42.5575 68.9651 39.6373 65.3756 39.6373H62.6254C59.0359 39.6373 56.1157 42.5575 56.1157 46.1469C56.1157 46.2304 56.1317 46.3134 56.1619 46.391L58.467 52.2359ZM62.6254 40.9691H65.3756C68.192 40.9691 70.49 43.2289 70.5526 46.0307L68.5754 51.3261H64.8302L62.4878 44.1791C62.3733 43.8299 61.9974 43.639 61.6477 43.754C61.2984 43.8685 61.108 44.2444 61.2225 44.5941L63.4287 51.3265H59.5396L57.4489 46.0249C57.5141 43.2258 59.8112 40.9691 62.6254 40.9691Z" fill="black"/>
<rect x="9" y="21" width="43" height="38" fill="white"/>
<path d="M40 26C40 26.552 39.553 27 39 27H27C26.448 27 26 26.552 26 26V24C26 23.448 26.448 23 27 23H39C39.553 23 40 23.448 40 24V26Z" stroke="black" stroke-width="2" stroke-miterlimit="10"/>
<path d="M36.033 17H30.123M24.991 17H23C19.688 17 17 19.56 17 22.714V51.286C17 54.44 19.688 57 23 57H43C46.312 57 49 54.44 49 51.286V22.714C49 19.56 46.312 17 43 17H41.068H24.991Z" stroke="black" stroke-width="2" stroke-miterlimit="10" stroke-linecap="round" stroke-linejoin="round"/>
<path d="M38.5 19C39.8807 19 41 17.8807 41 16.5C41 15.1193 39.8807 14 38.5 14C37.1193 14 36 15.1193 36 16.5C36 17.8807 37.1193 19 38.5 19Z" stroke="black" stroke-width="2" stroke-miterlimit="10" stroke-linecap="round" stroke-linejoin="round"/>
<path d="M27.5 19C28.8807 19 30 17.8807 30 16.5C30 15.1193 28.8807 14 27.5 14C26.1193 14 25 15.1193 25 16.5C25 17.8807 26.1193 19 27.5 19Z" stroke="black" stroke-width="2" stroke-miterlimit="10" stroke-linecap="round" stroke-linejoin="round"/>
<path d="M21 28.833C21 27.821 21.896 27 23 27H43C44.104 27 45 27.821 45 28.833V37.166C45 38.178 44.104 39 43 39H23C21.896 39 21 38.178 21 37.166V28.833Z" stroke="black" stroke-width="2" stroke-miterlimit="10" stroke-linecap="round" stroke-linejoin="round"/>
<path d="M24 52C25.6569 52 27 50.6569 27 49C27 47.3431 25.6569 46 24 46C22.3431 46 21 47.3431 21 49C21 50.6569 22.3431 52 24 52Z" stroke="black" stroke-width="2" stroke-miterlimit="10" stroke-linecap="round" stroke-linejoin="round"/>
<path d="M42 52C43.6569 52 45 50.6569 45 49C45 47.3431 43.6569 46 42 46C40.3431 46 39 47.3431 39 49C39 50.6569 40.3431 52 42 52Z" stroke="black" stroke-width="2" stroke-miterlimit="10" stroke-linecap="round" stroke-linejoin="round"/>
<path d="M40 26C40 26.552 39.553 27 39 27H27C26.448 27 26 26.552 26 26V24C26 23.448 26.448 23 27 23H39C39.553 23 40 23.448 40 24V26Z" stroke="black" stroke-width="2" stroke-miterlimit="10"/>
<path d="M36.033 17H30.123M24.991 17H23C19.688 17 17 19.56 17 22.714V51.286C17 54.44 19.688 57 23 57H43C46.312 57 49 54.44 49 51.286V22.714C49 19.56 46.312 17 43 17H41.068H24.991Z" stroke="black" stroke-width="2" stroke-miterlimit="10" stroke-linecap="round" stroke-linejoin="round"/>
<path d="M38.5 19C39.8807 19 41 17.8807 41 16.5C41 15.1193 39.8807 14 38.5 14C37.1193 14 36 15.1193 36 16.5C36 17.8807 37.1193 19 38.5 19Z" stroke="black" stroke-width="2" stroke-miterlimit="10" stroke-linecap="round" stroke-linejoin="round"/>
<path d="M27.5 19C28.8807 19 30 17.8807 30 16.5C30 15.1193 28.8807 14 27.5 14C26.1193 14 25 15.1193 25 16.5C25 17.8807 26.1193 19 27.5 19Z" stroke="black" stroke-width="2" stroke-miterlimit="10" stroke-linecap="round" stroke-linejoin="round"/>
<path d="M21 28.833C21 27.821 21.896 27 23 27H43C44.104 27 45 27.821 45 28.833V37.166C45 38.178 44.104 39 43 39H23C21.896 39 21 38.178 21 37.166V28.833Z" stroke="black" stroke-width="2" stroke-miterlimit="10" stroke-linecap="round" stroke-linejoin="round"/>
<path d="M24 52C25.6569 52 27 50.6569 27 49C27 47.3431 25.6569 46 24 46C22.3431 46 21 47.3431 21 49C21 50.6569 22.3431 52 24 52Z" stroke="black" stroke-width="2" stroke-miterlimit="10" stroke-linecap="round" stroke-linejoin="round"/>
<path d="M42 52C43.6569 52 45 50.6569 45 49C45 47.3431 43.6569 46 42 46C40.3431 46 39 47.3431 39 49C39 50.6569 40.3431 52 42 52Z" stroke="black" stroke-width="2" stroke-miterlimit="10" stroke-linecap="round" stroke-linejoin="round"/>
<rect x="0.5" y="0.5" width="89" height="89" stroke="black"/>
</svg>
