<svg width="90" height="90" viewBox="0 0 90 90" fill="none" xmlns="http://www.w3.org/2000/svg">
<rect x="0.5" y="0.5" width="89" height="89" stroke="black"/>
<path d="M39.9375 23.9375C43.5104 23.9375 46.4062 21.0417 46.4062 17.4688C46.4062 13.8958 43.5104 11 39.9375 11C36.3646 11 33.4688 13.8958 33.4688 17.4688C33.4688 21.0417 36.3646 23.9375 39.9375 23.9375ZM55.0312 41.1875C54.3003 41.1875 53.5844 41.2349 52.875 41.3147C52.875 36.8103 52.875 32.5625 52.875 32.5625C52.875 32.5625 52.875 28.25 48.5625 28.25C47.3313 28.25 31.3125 28.25 31.3125 28.25C31.3125 28.25 27 28.25 27 32.5625V49.8125C27 54.7395 31.3125 54.125 31.3125 54.125V80H48.5625V78.8723C50.5872 79.5882 52.7586 80 55.0312 80C65.75 79.9957 74.4332 71.3125 74.4375 60.5938C74.4332 49.8707 65.75 41.1875 55.0312 41.1875ZM55.0312 75.4352C46.8353 75.4158 40.2049 68.7853 40.1855 60.5938C40.2049 52.3978 46.8353 45.7674 55.0312 45.748C63.2228 45.7674 69.8533 52.3978 69.8727 60.5938C69.8533 68.7853 63.2228 75.4158 55.0312 75.4352Z" fill="black"/>
<path d="M52.875 71.375H57.1875V58.4375H52.875V71.375ZM52.875 49.8125V54.125H57.1875V49.8125H52.875Z" fill="black"/>
</svg>
