<svg width="512" height="512" viewBox="0 0 512 512" fill="none" xmlns="http://www.w3.org/2000/svg">
<path d="M449 30.48V251.94H430.25V36.57C430.25 27.57 423.54 20.32 415.25 20.32H153.73L172.31 0H420.87C436.4 0 449 13.65 449 30.48Z" fill="black"/>
<path d="M81.48 99.35V251.94H62.73V119.87L81.48 99.35Z" fill="black"/>
<path d="M172.31 0V88C172.31 105.59 159.26 119.85 143.19 119.85H62.73L81.48 99.35L153.73 20.35L172.31 0Z" fill="black"/>
<path d="M490.31 272.25H21.69C9.69 272.25 0 281.35 0 292.57V369.78C0 381 9.71 390.1 21.69 390.1H490.31C502.31 390.1 512 381 512 369.78V292.57C512 281.35 502.29 272.25 490.31 272.25ZM213.09 363.64C212.552 364.558 211.769 365.309 210.83 365.81C209.819 366.349 208.686 366.621 207.54 366.6C206.376 366.638 205.223 366.355 204.21 365.78C203.34 365.277 202.587 364.595 202 363.78C201.44 362.96 200.38 361.38 198.85 359.03L186.72 339.95L173.85 359.59C172.85 361.16 172.13 362.26 171.71 362.88C171.262 363.542 170.749 364.159 170.18 364.72C169.572 365.32 168.856 365.798 168.07 366.13C167.156 366.488 166.181 366.661 165.2 366.64C163.648 366.696 162.136 366.139 160.99 365.09C160.408 364.5 159.958 363.792 159.67 363.015C159.382 362.237 159.263 361.407 159.32 360.58C159.32 358.26 160.467 355.427 162.76 352.08L178.17 329.56L165.17 309.56C164.135 307.961 163.216 306.29 162.42 304.56C161.842 303.304 161.529 301.942 161.5 300.56C161.516 299.875 161.683 299.201 161.989 298.588C162.295 297.974 162.732 297.436 163.27 297.01C164.451 295.957 165.989 295.396 167.57 295.44C168.403 295.391 169.237 295.518 170.017 295.812C170.798 296.107 171.507 296.563 172.1 297.15C173.786 299.134 175.288 301.266 176.59 303.52L187 320.17L198 303.44L200.33 299.82C200.88 298.94 201.502 298.107 202.19 297.33C202.746 296.702 203.427 296.198 204.19 295.85C205.002 295.507 205.878 295.34 206.76 295.36C208.344 295.294 209.89 295.859 211.06 296.93C211.585 297.401 212.004 297.978 212.29 298.622C212.576 299.267 212.723 299.965 212.72 300.67C212.72 302.77 211.517 305.62 209.11 309.22L195.52 329.52L210.13 352C211.214 353.591 212.173 355.262 213 357C213.556 358.153 213.859 359.411 213.89 360.69C213.89 361.727 213.614 362.745 213.09 363.64V363.64ZM289.27 358.71C289.27 361.34 288.69 363.31 287.51 364.63C286.92 365.291 286.19 365.814 285.374 366.159C284.558 366.505 283.676 366.666 282.79 366.63C281.93 366.652 281.075 366.484 280.287 366.138C279.499 365.793 278.797 365.278 278.23 364.63C277.043 363.297 276.447 361.323 276.44 358.71V311.15L265.4 355C264.68 357.85 264.09 359.95 263.64 361.28C263.125 362.689 262.257 363.942 261.12 364.92C259.697 366.086 257.886 366.672 256.05 366.56C254.684 366.622 253.328 366.303 252.132 365.639C250.937 364.975 249.949 363.992 249.28 362.8C248.631 361.656 248.133 360.432 247.8 359.16C247.44 357.83 247.07 356.44 246.69 355L235.69 311.11V358.67C235.69 361.297 235.103 363.27 233.93 364.59C233.327 365.211 232.606 365.704 231.809 366.041C231.012 366.377 230.155 366.551 229.29 366.551C228.425 366.551 227.568 366.377 226.771 366.041C225.974 365.704 225.253 365.211 224.65 364.59C223.45 363.29 222.86 361.31 222.86 358.65V304.19C222.86 301.183 223.643 299.153 225.21 298.1C227.122 296.961 229.328 296.415 231.55 296.53H235.88C237.794 296.43 239.71 296.67 241.54 297.24C242.711 297.704 243.65 298.614 244.15 299.77C244.949 301.717 245.594 303.723 246.08 305.77L256.08 343.51L266.08 305.77C266.564 303.723 267.206 301.717 268 299.77C268.503 298.616 269.441 297.707 270.61 297.24C272.443 296.671 274.363 296.431 276.28 296.53H280.6C282.822 296.414 285.029 296.96 286.94 298.1C288.507 299.147 289.29 301.177 289.29 304.19L289.27 358.71ZM350.8 363.86C349.31 365.004 347.453 365.563 345.58 365.43H311.88C308.84 365.43 306.657 364.763 305.33 363.43C303.99 362.08 303.33 359.9 303.33 356.9V303.81C303.33 301 303.96 298.88 305.23 297.47C305.859 296.775 306.632 296.225 307.496 295.861C308.36 295.496 309.293 295.325 310.23 295.36C311.179 295.322 312.124 295.49 313.003 295.85C313.881 296.211 314.671 296.757 315.32 297.45C316.62 298.84 317.32 300.96 317.32 303.81V354H345.61C347.486 353.873 349.341 354.463 350.8 355.65C351.386 356.164 351.851 356.8 352.164 357.514C352.477 358.227 352.629 359.001 352.61 359.78C352.627 360.551 352.474 361.317 352.161 362.022C351.848 362.728 351.383 363.355 350.8 363.86V363.86Z" fill="black"/>
<path d="M439.76 400.25C434.58 400.25 430.38 404.8 430.38 410.41V475.41C430.38 484.41 423.67 491.66 415.38 491.66H96.6201C88.3301 491.66 81.6201 484.39 81.6201 475.41V410.41C81.6201 404.8 77.4201 400.25 72.2401 400.25C67.0601 400.25 62.8701 404.8 62.8701 410.41V481.52C62.8701 498.35 75.4701 512 91.0001 512H421C436.52 512 449.12 498.35 449.12 481.52V410.41C449.13 404.8 444.94 400.25 439.76 400.25Z" fill="black"/>
</svg>
