<svg width="90" height="90" viewBox="0 0 90 90" fill="none" xmlns="http://www.w3.org/2000/svg">
<path d="M82.7917 29.0658C77.6721 23.8645 70.8694 21 63.6375 21C56.6462 21 50.0563 23.6775 45 28.5548C39.9437 23.6774 33.354 21 26.3625 21C19.1304 21 12.3279 23.8645 7.20829 29.0658C7.07469 29.2016 7 29.3842 7 29.5745V67.6755C7 67.9699 7.17784 68.2349 7.45031 68.3466C7.72296 68.4579 8.03567 68.3939 8.24197 68.1842C13.0869 63.262 19.5223 60.5512 26.3627 60.5512C33.203 60.5512 39.6384 63.262 44.4833 68.1842C44.4888 68.1896 44.4953 68.1934 44.5009 68.1987C44.5252 68.2217 44.5508 68.2431 44.5782 68.2628C44.5887 68.2703 44.5986 68.2779 44.6093 68.2848C44.6431 68.3063 44.678 68.3257 44.7156 68.3415C44.7185 68.3428 44.7208 68.3446 44.7239 68.3455C44.7244 68.3459 44.7248 68.3462 44.7255 68.3464C44.7652 68.3627 44.8058 68.3741 44.847 68.383C44.859 68.3856 44.8711 68.3868 44.8831 68.3888C44.9146 68.3939 44.946 68.3972 44.9775 68.3983C44.9851 68.3984 44.9928 68.4004 45.0004 68.4004C45.0058 68.4004 45.0116 68.399 45.0169 68.399C45.0526 68.3981 45.0877 68.3948 45.1225 68.3887C45.1291 68.3876 45.1358 68.3872 45.1421 68.3861C45.1836 68.3776 45.2239 68.3653 45.2634 68.3497C45.2672 68.3482 45.2712 68.3479 45.2748 68.3462C45.2862 68.3415 45.2964 68.335 45.3076 68.3297C45.3249 68.3218 45.3417 68.3138 45.3582 68.3045C45.3736 68.2956 45.3881 68.2857 45.4028 68.2759C45.4177 68.2659 45.4325 68.2561 45.4469 68.2449C45.4615 68.2335 45.4751 68.2208 45.4887 68.2083C45.498 68.1997 45.5078 68.1927 45.5167 68.1838C50.3616 63.2616 56.797 60.5509 63.6373 60.5509C70.4777 60.5509 76.9131 63.2616 81.758 68.1838C81.8971 68.325 82.0843 68.4001 82.275 68.4001C82.3675 68.4001 82.4607 68.3823 82.5497 68.346C82.8222 68.2344 83 67.9693 83 67.6749V29.5747C83 29.3843 82.9251 29.2016 82.7917 29.0658ZM8.45026 65.9803V29.874C13.2704 25.0845 19.6198 22.4504 26.3627 22.4504C33.1055 22.4504 39.4547 25.0845 44.275 29.874V65.9803C39.3219 61.5318 33.0244 59.1012 26.3627 59.1012C19.7009 59.1012 13.4035 61.5318 8.45026 65.9803ZM81.5497 65.9803C76.5965 61.5318 70.2991 59.1012 63.6373 59.1012C56.9756 59.1012 50.6783 61.5318 45.7251 65.9803V29.874C50.5454 25.0845 56.8947 22.4504 63.6375 22.4504C70.3803 22.4504 76.7296 25.0845 81.5499 29.874V65.9803H81.5497Z" fill="black"/>
<path d="M74.6161 40.3742C74.4856 40.3742 74.3531 40.3467 74.2269 40.2881C67.6308 37.2346 60.0444 37.1916 53.4142 40.1708C52.9461 40.3806 52.3972 40.1719 52.1869 39.7044C51.9768 39.2367 52.1854 38.6874 52.653 38.4771C59.775 35.2778 67.9224 35.3239 75.0068 38.6035C75.4721 38.8188 75.6746 39.3705 75.4593 39.8357C75.3025 40.1748 74.9669 40.3742 74.6161 40.3742Z" fill="black"/>
<path d="M74.6161 46.6403C74.4856 46.6403 74.3531 46.6127 74.2269 46.554C67.6308 43.5005 60.0444 43.4575 53.4142 46.4367C52.9461 46.6465 52.3972 46.4378 52.1869 45.9705C51.9768 45.5027 52.1854 44.9533 52.653 44.7432C59.775 41.5437 67.9224 41.5899 75.0068 44.8692C75.4721 45.0845 75.6746 45.6363 75.4593 46.1017C75.3025 46.4407 74.9669 46.6403 74.6161 46.6403Z" fill="black"/>
<path d="M74.6161 52.9063C74.4856 52.9063 74.3531 52.8788 74.2269 52.8201C67.6308 49.7665 60.0444 49.7236 53.4142 52.7028C52.9461 52.9125 52.3972 52.7039 52.1869 52.2365C51.9768 51.7688 52.1854 51.2195 52.653 51.0092C59.775 47.8099 67.9224 47.8558 75.0068 51.1352C75.4721 51.3508 75.6746 51.9024 75.4593 52.3678C75.3025 52.7066 74.9669 52.9063 74.6161 52.9063Z" fill="black"/>
<path d="M37.2526 40.3777C37.1221 40.3777 36.9896 40.3501 36.8632 40.2916C30.2671 37.2381 22.6807 37.1951 16.0505 40.1743C15.5824 40.384 15.0335 40.1754 14.8232 39.7079C14.6131 39.2401 14.8219 38.6909 15.2895 38.4806C22.4114 35.2813 30.5589 35.3273 37.6433 38.6069C38.1087 38.8223 38.311 39.3739 38.0958 39.8391C37.939 40.1783 37.6032 40.3777 37.2526 40.3777Z" fill="black"/>
<path d="M37.2526 46.6437C37.1221 46.6437 36.9896 46.6162 36.8632 46.5575C30.2671 43.5041 22.6807 43.461 16.0505 46.4403C15.5824 46.6499 15.0335 46.4414 14.8232 45.9739C14.6131 45.5062 14.8219 44.9569 15.2895 44.7466C22.4114 41.5472 30.5589 41.5934 37.6433 44.8728C38.1087 45.0882 38.311 45.6398 38.0958 46.1052C37.939 46.4442 37.6032 46.6437 37.2526 46.6437Z" fill="black"/>
<path d="M37.2526 52.9096C37.1221 52.9096 36.9896 52.8821 36.8632 52.8233C30.2671 49.7698 22.6807 49.727 16.0505 52.7062C15.5824 52.9158 15.0335 52.7073 14.8232 52.2398C14.6131 51.7722 14.8219 51.2228 15.2895 51.0125C22.4114 47.8132 30.5589 47.8592 37.6433 51.1387C38.1087 51.354 38.311 51.9058 38.0958 52.371C37.939 52.7102 37.6032 52.9096 37.2526 52.9096Z" fill="black"/>
<rect x="0.5" y="0.5" width="89" height="89" stroke="black"/>
</svg>
