<svg width="329" height="368" viewBox="0 0 329 368" fill="none" xmlns="http://www.w3.org/2000/svg">
<path d="M274.586 154.328C274.186 151.826 271.884 150.025 269.382 150.025H265.078C261.675 150.025 258.273 150.025 254.87 150.025C252.668 141.017 249.065 132.41 244.161 124.403C247.564 120.9 250.966 117.497 254.469 113.995C256.271 112.193 256.571 109.391 255.07 107.389C247.964 97.4807 239.257 88.8734 229.348 81.7675C227.347 80.3663 224.544 80.5664 222.743 82.368C221.041 84.0694 219.34 85.7708 217.638 87.4723C215.937 89.1737 214.135 90.8751 212.334 92.7767C205.328 88.5732 197.822 85.2704 190.015 83.0685C188.814 81.4672 187.713 80.1661 186.512 78.5648V76.5631C186.512 76.3629 186.512 76.1627 186.512 75.9626V73.0601C186.512 71.2586 186.512 69.4571 186.512 67.3553C186.512 64.8532 184.711 62.7515 182.209 62.3511C170.199 60.5496 158.689 60.5496 146.779 62.3511C144.277 62.7515 142.375 65.0534 142.475 67.6556C142.475 69.4571 142.475 71.2586 142.475 73.1602V76.0627C142.475 76.2628 142.475 76.463 142.475 76.6632V78.6648C141.274 80.2662 140.173 81.5673 138.972 83.1686C133.368 84.77 128.063 86.8717 122.859 89.4739C118.955 88.8734 115.352 88.2729 111.449 87.5723C109.748 85.8709 108.046 84.1695 106.345 82.468C104.543 80.6665 101.841 80.4664 99.7393 81.8675C89.831 88.9735 81.1236 97.5807 74.0177 107.489C72.5164 109.491 72.8167 112.293 74.6182 114.095C78.1211 117.497 81.524 121 84.9268 124.503C80.1228 132.51 76.5198 141.117 74.2178 150.125C70.815 150.025 67.4121 150.025 64.0093 150.125H59.5055C57.1034 150.125 54.9016 151.926 54.5013 154.328C53.5004 160.434 53 166.539 53 172.644C53 178.849 53.5004 184.954 54.5013 190.759C54.9016 193.061 57.0034 194.863 59.4054 194.963C59.6056 194.963 60.0059 194.963 60.5063 194.963C63.3087 194.963 66.111 194.963 68.9134 194.963H74.2178C76.5198 204.17 80.1228 212.778 85.0269 220.884C82.8251 222.986 80.7233 225.188 78.6215 227.29L75.8192 230.092C75.3188 230.593 74.8183 231.093 74.418 231.493C72.9167 233.295 72.7166 235.897 74.1178 237.899C81.2237 247.707 89.831 256.214 99.6392 263.22C100.54 263.82 101.641 264.121 102.642 264.121C103.943 264.121 105.244 263.62 106.245 262.619C106.245 262.619 106.645 262.319 106.645 262.219C108.647 260.017 110.749 258.016 112.85 255.914C114.051 254.713 115.352 253.512 116.553 252.211C116.954 252.411 117.354 252.711 117.754 252.911C121.157 254.913 125.461 252.411 125.461 248.508C125.461 246.706 124.46 245.005 122.859 244.104C121.357 243.203 119.956 242.302 118.455 241.402C116.754 240.301 114.552 240.401 112.85 241.602C112.35 242.002 111.849 242.402 111.249 243.003C109.347 245.005 107.546 246.806 105.544 248.708C104.343 249.809 103.142 251.01 101.941 252.211C95.5358 247.307 89.831 241.602 84.8268 235.297L85.7275 234.396C88.5299 231.593 91.3322 228.791 94.2347 225.989C94.8352 225.388 95.2355 224.888 95.6358 224.387C96.8368 222.486 96.5366 220.084 95.3356 218.282C89.4306 209.275 85.3272 199.366 83.2254 188.857C82.725 186.455 80.6232 184.754 78.2212 184.754H77.6207C74.7183 184.754 71.8158 184.754 68.8133 184.754H63.8091C63.4088 180.851 63.1085 176.747 63.1085 172.644C63.1085 168.64 63.3087 164.537 63.8091 160.333H63.9092C68.1127 160.333 72.2162 160.334 76.1194 160.434C77.2204 160.534 78.3213 160.434 79.4222 160.133C81.3238 159.733 82.8251 158.132 83.2254 156.23C85.3272 145.721 89.4306 135.813 95.4357 126.805C96.5366 125.104 96.5366 122.902 95.4357 121.301C94.8352 120.3 94.0345 119.499 92.9336 118.298C90.2313 115.596 87.4289 112.794 84.7267 110.091C89.7309 103.686 95.5358 97.881 102.041 92.8768C104.944 95.7792 107.946 98.6817 110.849 101.784C111.649 102.585 112.65 103.486 114.151 104.086C115.753 104.687 117.454 104.386 118.855 103.486C127.863 97.5807 137.771 93.5774 148.18 91.5757C150.182 91.1754 151.683 89.6741 152.183 87.6724C152.384 86.9718 152.384 86.1712 152.384 85.1703C152.283 83.0685 152.283 80.9668 152.384 78.9651V76.3629C152.384 76.1627 152.384 75.9626 152.384 75.7624V73.5606C152.384 73.1602 152.384 72.6598 152.384 72.2595C160.39 71.3587 167.997 71.3587 176.003 72.2595C176.003 72.6598 176.003 73.1602 176.003 73.5606V75.7624C176.003 75.9626 176.003 76.1627 176.003 76.3629V78.9651C176.003 80.9668 176.003 83.0685 176.003 85.3705C176.003 86.1712 176.103 86.9718 176.204 87.6724C176.604 89.6741 178.205 91.1754 180.207 91.5757C190.716 93.5774 200.524 97.5807 209.532 103.486C210.933 104.386 212.734 104.687 214.336 104.086C215.737 103.486 216.838 102.585 217.638 101.784C220.541 98.7818 223.543 95.8793 226.346 92.9769C232.851 97.9811 238.656 103.786 243.66 110.191C240.958 112.894 238.156 115.696 235.553 118.398C234.352 119.499 233.552 120.4 232.951 121.401C231.85 123.102 231.85 125.304 232.951 126.905C238.956 135.913 243.06 145.821 245.162 156.33C245.562 158.232 247.063 159.833 248.965 160.233C250.066 160.534 251.167 160.634 252.167 160.534C256.271 160.434 260.374 160.434 264.478 160.434H264.678C265.078 164.437 265.379 168.54 265.379 172.744C265.379 176.847 265.178 180.951 264.678 184.854H259.674C256.771 184.854 253.869 184.854 250.866 184.854H250.766C248.364 184.854 246.262 186.556 245.762 188.958C243.66 199.667 239.457 209.575 233.452 218.683C232.451 220.284 232.351 222.786 233.352 224.387C233.652 224.888 234.052 225.488 234.753 226.089C236.754 227.99 239.957 230.993 241.859 232.995L244.161 235.397C239.156 241.702 233.352 247.407 227.046 252.411C225.745 251.11 224.444 249.809 223.043 248.408L217.638 243.003C217.138 242.402 216.638 242.002 216.137 241.702C214.436 240.401 212.034 240.401 210.332 241.602C209.031 242.503 207.63 243.403 206.129 244.204C204.527 245.105 203.527 246.706 203.527 248.508V248.808C203.527 252.611 207.63 255.013 210.933 253.111C211.433 252.811 211.934 252.511 212.434 252.211C213.535 253.312 214.636 254.413 215.737 255.614C217.939 257.815 220.14 260.017 222.442 262.419C222.843 262.82 223.143 263.12 223.543 263.32C225.345 264.521 227.647 264.421 229.348 263.22C239.156 256.214 247.664 247.707 254.87 237.899C256.271 235.897 256.171 233.295 254.569 231.493C254.169 231.093 253.669 230.593 253.168 230.092L250.366 227.29C248.264 225.188 246.162 223.086 243.961 220.884C248.865 212.778 252.468 204.07 254.77 194.963C256.571 194.963 258.273 194.963 260.074 194.963H268.481C268.982 194.963 269.382 194.963 269.482 194.963C271.984 194.963 274.086 193.161 274.486 190.759C275.487 184.954 275.987 178.849 275.987 172.644C276.088 166.339 275.587 160.233 274.586 154.328Z" fill="black"/>
<path d="M209.432 166.739C209.432 166.739 209.432 166.639 209.432 166.739C209.432 152.027 202.225 138.415 190.315 130.108C189.415 129.508 188.614 128.907 187.713 128.407C186.112 127.506 184.21 127.406 182.609 128.307C181.008 129.207 180.007 130.909 180.007 132.71V162.135C180.007 164.537 178.005 166.539 175.603 166.539H153.785C151.383 166.539 149.381 164.537 149.381 162.135V132.71C149.381 130.909 148.38 129.207 146.779 128.307C145.177 127.406 143.176 127.406 141.574 128.407C140.674 129.007 139.773 129.608 138.772 130.208C126.962 138.615 119.956 152.227 119.956 166.639C119.956 167.239 119.956 167.84 119.956 168.04C120.357 182.052 127.463 195.263 139.072 203.27C140.073 203.97 141.074 204.671 142.075 205.271V283.737C141.875 295.747 151.082 305.956 163.193 306.957C163.593 306.957 164.093 306.957 164.494 306.957C164.594 306.957 164.594 306.957 164.594 306.957C170.599 306.957 176.304 304.655 180.507 300.451C184.811 296.248 187.213 290.543 187.213 284.438V205.171C188.114 204.671 189.014 204.07 189.915 203.47C201.825 195.263 209.131 181.852 209.331 167.74C209.432 167.439 209.432 167.139 209.432 166.739ZM199.223 167.339C199.023 178.449 193.418 188.857 184.21 195.163C182.809 196.164 181.408 196.964 179.907 197.665C178.205 198.566 177.104 200.267 177.104 202.269V284.538C177.104 287.841 175.803 290.943 173.401 293.345C171.099 295.647 167.897 296.948 164.594 296.948C164.594 296.948 164.594 296.948 164.494 296.948C164.193 296.948 163.993 296.948 163.893 296.948C157.188 296.348 152.083 290.643 152.183 283.937V202.269C152.183 200.167 150.982 198.466 149.181 197.665C147.68 196.964 146.278 196.064 144.777 195.063C135.77 188.757 130.365 178.849 130.065 167.54C130.065 167.239 130.065 167.039 130.065 166.739C130.065 158.032 133.368 149.725 139.172 143.519V162.135C139.172 170.142 145.678 176.747 153.785 176.747H175.603C183.61 176.747 190.215 170.242 190.215 162.135V143.419C196.02 149.725 199.323 158.032 199.323 166.739L199.223 167.339Z" fill="black"/>
<rect x="1" y="1" width="327" height="366" stroke="black"/>
</svg>
