<svg width="90" height="90" viewBox="0 0 90 90" fill="none" xmlns="http://www.w3.org/2000/svg">
<rect x="0.5" y="0.5" width="89" height="89" stroke="black"/>
<path fill-rule="evenodd" clip-rule="evenodd" d="M41.2611 21.2624C43.1279 18.2423 46.1589 18.2495 48.0212 21.2624L71.1608 58.6996C73.6529 62.7315 71.8376 66 67.1086 66H22.1737C17.4437 66 15.6213 62.7445 18.1215 58.6996L41.2611 21.2624ZM44.642 50.9814C45.8269 50.9814 46.7875 50.0094 46.7875 48.8422V35.9563C46.7875 34.7749 45.8352 33.8172 44.642 33.8172C43.457 33.8172 42.4964 34.7892 42.4964 35.9563V48.8422C42.4964 50.0236 43.4488 50.9814 44.642 50.9814ZM44.642 59.5634C45.8269 59.5634 46.7875 58.6029 46.7875 57.4179C46.7875 56.233 45.8269 55.2724 44.642 55.2724C43.457 55.2724 42.4964 56.233 42.4964 57.4179C42.4964 58.6029 43.457 59.5634 44.642 59.5634Z" fill="black"/>
</svg>
