<svg width="329" height="368" viewBox="0 0 329 368" fill="none" xmlns="http://www.w3.org/2000/svg">
<path d="M206.796 177.758C216.559 167.974 222.63 155.109 223.973 141.352C225.316 127.596 221.848 113.799 214.16 102.313C206.473 90.8258 195.041 82.3593 181.812 78.3552C168.583 74.3511 154.374 75.057 141.607 80.3528C128.84 85.6485 118.304 95.2065 111.793 107.399C105.282 119.591 103.199 133.663 105.898 147.219C108.598 160.775 115.914 172.975 126.6 181.742C137.285 190.509 150.68 195.301 164.502 195.301C172.361 195.319 180.146 193.778 187.406 190.766C194.666 187.755 201.256 183.333 206.796 177.758ZM138.589 161.377C138.193 160.979 137.724 160.664 137.206 160.448C136.688 160.233 136.133 160.122 135.572 160.122C135.012 160.122 134.457 160.233 133.939 160.448C133.421 160.664 132.951 160.979 132.556 161.377L125.381 168.553C118.465 160.44 114.278 150.358 113.413 139.733H123.593C124.726 139.733 125.813 139.283 126.615 138.481C127.417 137.68 127.867 136.593 127.867 135.459C127.867 134.325 127.417 133.238 126.615 132.437C125.813 131.635 124.726 131.185 123.593 131.185H113.42C114.285 120.56 118.472 110.477 125.388 102.365L132.556 109.551C133.362 110.321 134.438 110.745 135.552 110.733C136.667 110.72 137.733 110.272 138.521 109.483C139.31 108.695 139.758 107.629 139.771 106.515C139.783 105.4 139.359 104.324 138.589 103.518L131.413 96.3427C139.525 89.4271 149.608 85.2402 160.233 84.3752V94.5549C160.233 95.6884 160.683 96.7756 161.484 97.5771C162.286 98.3786 163.373 98.8289 164.507 98.8289C165.64 98.8289 166.727 98.3786 167.529 97.5771C168.33 96.7756 168.781 95.6884 168.781 94.5549V84.3826C179.405 85.2475 189.488 89.4345 197.6 96.35L190.415 103.518C190.014 103.912 189.696 104.381 189.479 104.899C189.262 105.417 189.151 105.973 189.151 106.534C189.151 107.096 189.262 107.652 189.479 108.17C189.696 108.688 190.014 109.157 190.415 109.551C190.808 109.953 191.277 110.272 191.795 110.49C192.313 110.708 192.869 110.82 193.431 110.82C193.993 110.82 194.549 110.708 195.067 110.49C195.585 110.272 196.055 109.953 196.447 109.551L203.623 102.375C210.538 110.487 214.725 120.57 215.59 131.195H205.411C204.277 131.195 203.19 131.645 202.389 132.447C201.587 133.248 201.137 134.335 201.137 135.469C201.137 136.602 201.587 137.689 202.389 138.491C203.19 139.293 204.277 139.743 205.411 139.743H215.583C214.718 150.367 210.531 160.45 203.616 168.562L196.447 161.377C195.641 160.607 194.566 160.182 193.451 160.195C192.336 160.208 191.271 160.656 190.482 161.444C189.694 162.233 189.245 163.298 189.233 164.413C189.22 165.528 189.645 166.604 190.415 167.41L197.581 174.592C189.471 181.5 179.394 185.681 168.776 186.545V176.373C168.776 175.239 168.326 174.152 167.524 173.351C166.722 172.549 165.635 172.099 164.502 172.099C163.368 172.099 162.281 172.549 161.48 173.351C160.678 174.152 160.228 175.239 160.228 176.373V186.545C149.61 185.681 139.533 181.5 131.423 174.592L138.589 167.41C138.989 167.016 139.307 166.546 139.524 166.029C139.741 165.511 139.853 164.955 139.853 164.393C139.853 163.832 139.741 163.276 139.524 162.758C139.307 162.24 138.989 161.771 138.589 161.377Z" fill="black"/>
<path d="M164.502 147.065C167.577 147.061 170.526 145.838 172.701 143.663C174.875 141.488 176.099 138.539 176.103 135.464C176.097 133.884 175.764 132.322 175.126 130.877L183.962 122.055C184.764 121.254 185.214 120.167 185.214 119.033C185.214 117.899 184.764 116.812 183.962 116.011C183.161 115.209 182.073 114.759 180.94 114.759C179.806 114.759 178.719 115.209 177.917 116.011L169.088 124.842C167.508 124.155 165.793 123.83 164.071 123.889C162.348 123.949 160.66 124.391 159.131 125.185C157.601 125.979 156.267 127.105 155.227 128.479C154.187 129.853 153.466 131.443 153.118 133.131C152.77 134.819 152.802 136.563 153.213 138.237C153.624 139.911 154.403 141.472 155.494 142.807C156.584 144.142 157.958 145.217 159.517 145.953C161.075 146.69 162.778 147.07 164.502 147.065V147.065ZM164.502 132.411C165.298 132.413 166.061 132.725 166.631 133.28C167.216 133.857 167.548 134.642 167.555 135.464C167.555 136.068 167.376 136.658 167.04 137.16C166.705 137.662 166.228 138.053 165.67 138.284C165.112 138.515 164.498 138.576 163.906 138.458C163.314 138.34 162.77 138.05 162.343 137.623C161.916 137.196 161.625 136.652 161.507 136.059C161.39 135.467 161.45 134.853 161.681 134.296C161.912 133.738 162.304 133.261 162.806 132.925C163.308 132.59 163.898 132.411 164.502 132.411V132.411Z" fill="black"/>
<path fill-rule="evenodd" clip-rule="evenodd" d="M262.599 278.733C264.773 280.908 265.997 283.856 266 286.932C265.991 289.384 265.204 291.77 263.752 293.746C262.3 295.722 260.258 297.186 257.921 297.928L249.373 298.533H79.6308L71.0826 297.928C68.4456 297.095 66.1943 295.344 64.7368 292.994C63.2793 290.644 62.7121 287.849 63.138 285.117C63.5639 282.384 64.9547 279.895 67.0583 278.099C69.1619 276.304 71.839 275.322 74.6045 275.331H160.228V225.088C158.07 224.233 156.218 222.75 154.912 220.832C153.606 218.914 152.905 216.648 152.901 214.327V209.044C135.376 206.276 119.415 197.344 107.889 183.855C96.3641 170.366 90.0316 153.207 90.0316 135.465C90.0316 117.723 96.3641 100.564 107.889 87.0751C119.415 73.5865 135.376 64.6543 152.901 61.8863V56.6011C152.901 53.5243 154.123 50.5735 156.299 48.3979C158.474 46.2223 161.425 45 164.502 45C167.579 45 170.529 46.2223 172.705 48.3979C174.881 50.5735 176.103 53.5243 176.103 56.6011V61.8863C193.626 64.656 209.585 73.5886 221.109 87.0769C232.633 100.565 238.964 117.723 238.964 135.464C238.964 153.204 232.633 170.363 221.109 183.851C209.585 197.339 193.626 206.272 176.103 209.041V214.327C176.103 216.65 175.405 218.92 174.098 220.841C172.792 222.763 170.937 224.246 168.776 225.1V275.331H254.399C257.475 275.334 260.424 276.558 262.599 278.733ZM161.449 209.874V214.327C161.455 215.081 161.742 215.807 162.254 216.361C162.766 216.915 163.467 217.258 164.218 217.323C164.314 217.316 164.404 217.294 164.502 217.294C164.551 217.294 164.599 217.301 164.646 217.309C164.693 217.316 164.74 217.323 164.787 217.323C165.543 217.27 166.251 216.93 166.765 216.373C167.279 215.817 167.561 215.085 167.555 214.327V209.874C166.546 209.916 165.535 209.955 164.502 209.955C163.469 209.955 162.457 209.916 161.449 209.874ZM166.658 54.4445C166.086 53.8724 165.311 53.5501 164.502 53.5482C163.692 53.5494 162.917 53.8715 162.344 54.4438C161.772 55.016 161.45 55.7918 161.449 56.6011V61.0559C163.469 60.9753 165.523 60.9753 167.555 61.0559V56.6011C167.553 55.792 167.23 55.0166 166.658 54.4445ZM115.448 91.2728C104.526 103.395 98.5057 119.147 98.5588 135.464C98.5062 151.775 104.523 167.522 115.438 179.642C126.353 191.762 141.387 199.389 157.614 201.038C162.182 201.529 166.789 201.529 171.357 201.038C187.555 199.328 202.546 191.684 213.443 179.579C224.34 167.474 230.372 151.764 230.376 135.477C230.38 119.189 224.357 103.477 213.466 91.3661C202.575 79.2554 187.588 71.6036 171.392 69.8849H171.357C166.8 69.3997 162.204 69.3997 157.646 69.8849C141.412 71.5268 126.37 79.1508 115.448 91.2728ZM256.558 284.773C255.985 284.201 255.209 283.879 254.399 283.879H74.6045C73.7948 283.879 73.0183 284.201 72.4458 284.773C71.8732 285.346 71.5516 286.123 71.5516 286.932C71.5516 287.742 71.8732 288.518 72.4458 289.091C73.0183 289.663 73.7948 289.985 74.6045 289.985H254.399C255.209 289.985 255.985 289.663 256.558 289.091C257.13 288.518 257.452 287.742 257.452 286.932C257.452 286.123 257.13 285.346 256.558 284.773Z" fill="black"/>
<rect x="1" y="1" width="327" height="366" stroke="black"/>
</svg>
