<svg width="941" height="492" viewBox="0 0 941 492" fill="none" xmlns="http://www.w3.org/2000/svg">
<path d="M624 368.697V441H334.512V383.486L482.266 243.809C497.953 228.837 508.533 216.056 514.005 205.466C519.478 194.511 522.214 183.739 522.214 173.149C522.214 157.812 516.924 146.126 506.344 138.093C496.129 129.694 480.989 125.494 460.923 125.494C444.141 125.494 429.001 128.781 415.503 135.354C402.004 141.562 390.695 151.056 381.574 163.837L317 122.208C331.958 99.9326 352.57 82.5871 378.838 70.1713C405.105 57.3904 435.203 51 469.132 51C497.588 51 522.396 55.7472 543.556 65.2415C565.081 74.3708 581.68 87.5168 593.355 104.68C605.394 121.478 611.414 141.379 611.414 164.385C611.414 185.199 607.036 204.736 598.28 222.994C589.524 241.253 572.56 262.067 547.387 285.438L459.282 368.697H624Z" fill="#F9F9F9"/>
</svg>
